G75*
%MOIN*%
%OFA0B0*%
%FSLAX25Y25*%
%IPPOS*%
%LPD*%
%AMOC8*
5,1,8,0,0,1.08239X$1,22.5*
%
%ADD10C,0.01181*%
%ADD11R,0.07800X0.02200*%
%ADD12R,0.03937X0.04331*%
%ADD13R,0.05500X0.08300*%
%ADD14R,0.04134X0.04252*%
%ADD15R,0.04016X0.07480*%
%ADD16C,0.01600*%
%ADD17C,0.02978*%
D10*
X0118741Y0271911D02*
X0120689Y0273859D01*
X0118741Y0271911D02*
X0116793Y0273859D01*
X0118741Y0275807D01*
X0120689Y0273859D01*
X0119921Y0273091D02*
X0117561Y0273091D01*
X0117205Y0274271D02*
X0120277Y0274271D01*
X0119097Y0275451D02*
X0118385Y0275451D01*
X0115807Y0278741D02*
X0113859Y0276793D01*
X0111911Y0278741D01*
X0113859Y0280689D01*
X0115807Y0278741D01*
X0115039Y0277973D02*
X0112679Y0277973D01*
X0112323Y0279153D02*
X0115395Y0279153D01*
X0114215Y0280333D02*
X0113503Y0280333D01*
X0118741Y0286911D02*
X0120689Y0288859D01*
X0118741Y0286911D02*
X0116793Y0288859D01*
X0118741Y0290807D01*
X0120689Y0288859D01*
X0119921Y0288091D02*
X0117561Y0288091D01*
X0117205Y0289271D02*
X0120277Y0289271D01*
X0119097Y0290451D02*
X0118385Y0290451D01*
X0115807Y0293741D02*
X0113859Y0291793D01*
X0111911Y0293741D01*
X0113859Y0295689D01*
X0115807Y0293741D01*
X0115039Y0292973D02*
X0112679Y0292973D01*
X0112323Y0294153D02*
X0115395Y0294153D01*
X0114215Y0295333D02*
X0113503Y0295333D01*
X0118741Y0301911D02*
X0120689Y0303859D01*
X0118741Y0301911D02*
X0116793Y0303859D01*
X0118741Y0305807D01*
X0120689Y0303859D01*
X0119921Y0303091D02*
X0117561Y0303091D01*
X0117205Y0304271D02*
X0120277Y0304271D01*
X0119097Y0305451D02*
X0118385Y0305451D01*
X0115807Y0308741D02*
X0113859Y0306793D01*
X0111911Y0308741D01*
X0113859Y0310689D01*
X0115807Y0308741D01*
X0115039Y0307973D02*
X0112679Y0307973D01*
X0112323Y0309153D02*
X0115395Y0309153D01*
X0114215Y0310333D02*
X0113503Y0310333D01*
X0118741Y0316911D02*
X0120689Y0318859D01*
X0118741Y0316911D02*
X0116793Y0318859D01*
X0118741Y0320807D01*
X0120689Y0318859D01*
X0119921Y0318091D02*
X0117561Y0318091D01*
X0117205Y0319271D02*
X0120277Y0319271D01*
X0119097Y0320451D02*
X0118385Y0320451D01*
X0115807Y0323741D02*
X0113859Y0321793D01*
X0111911Y0323741D01*
X0113859Y0325689D01*
X0115807Y0323741D01*
X0115039Y0322973D02*
X0112679Y0322973D01*
X0112323Y0324153D02*
X0115395Y0324153D01*
X0114215Y0325333D02*
X0113503Y0325333D01*
X0118741Y0331911D02*
X0120689Y0333859D01*
X0118741Y0331911D02*
X0116793Y0333859D01*
X0118741Y0335807D01*
X0120689Y0333859D01*
X0119921Y0333091D02*
X0117561Y0333091D01*
X0117205Y0334271D02*
X0120277Y0334271D01*
X0119097Y0335451D02*
X0118385Y0335451D01*
X0115807Y0338741D02*
X0113859Y0336793D01*
X0111911Y0338741D01*
X0113859Y0340689D01*
X0115807Y0338741D01*
X0115039Y0337973D02*
X0112679Y0337973D01*
X0112323Y0339153D02*
X0115395Y0339153D01*
X0114215Y0340333D02*
X0113503Y0340333D01*
X0118741Y0349411D02*
X0120689Y0351359D01*
X0118741Y0349411D02*
X0116793Y0351359D01*
X0118741Y0353307D01*
X0120689Y0351359D01*
X0119921Y0350591D02*
X0117561Y0350591D01*
X0117205Y0351771D02*
X0120277Y0351771D01*
X0119097Y0352951D02*
X0118385Y0352951D01*
X0115807Y0356241D02*
X0113859Y0354293D01*
X0111911Y0356241D01*
X0113859Y0358189D01*
X0115807Y0356241D01*
X0115039Y0355473D02*
X0112679Y0355473D01*
X0112323Y0356653D02*
X0115395Y0356653D01*
X0114215Y0357833D02*
X0113503Y0357833D01*
X0128859Y0354293D02*
X0130807Y0356241D01*
X0128859Y0354293D02*
X0126911Y0356241D01*
X0128859Y0358189D01*
X0130807Y0356241D01*
X0130039Y0355473D02*
X0127679Y0355473D01*
X0127323Y0356653D02*
X0130395Y0356653D01*
X0129215Y0357833D02*
X0128503Y0357833D01*
X0135689Y0351359D02*
X0133741Y0349411D01*
X0131793Y0351359D01*
X0133741Y0353307D01*
X0135689Y0351359D01*
X0134921Y0350591D02*
X0132561Y0350591D01*
X0132205Y0351771D02*
X0135277Y0351771D01*
X0134097Y0352951D02*
X0133385Y0352951D01*
X0130807Y0338741D02*
X0128859Y0336793D01*
X0126911Y0338741D01*
X0128859Y0340689D01*
X0130807Y0338741D01*
X0130039Y0337973D02*
X0127679Y0337973D01*
X0127323Y0339153D02*
X0130395Y0339153D01*
X0129215Y0340333D02*
X0128503Y0340333D01*
X0135689Y0333859D02*
X0133741Y0331911D01*
X0131793Y0333859D01*
X0133741Y0335807D01*
X0135689Y0333859D01*
X0134921Y0333091D02*
X0132561Y0333091D01*
X0132205Y0334271D02*
X0135277Y0334271D01*
X0134097Y0335451D02*
X0133385Y0335451D01*
X0130807Y0323741D02*
X0128859Y0321793D01*
X0126911Y0323741D01*
X0128859Y0325689D01*
X0130807Y0323741D01*
X0130039Y0322973D02*
X0127679Y0322973D01*
X0127323Y0324153D02*
X0130395Y0324153D01*
X0129215Y0325333D02*
X0128503Y0325333D01*
X0135689Y0318859D02*
X0133741Y0316911D01*
X0131793Y0318859D01*
X0133741Y0320807D01*
X0135689Y0318859D01*
X0134921Y0318091D02*
X0132561Y0318091D01*
X0132205Y0319271D02*
X0135277Y0319271D01*
X0134097Y0320451D02*
X0133385Y0320451D01*
X0130807Y0308741D02*
X0128859Y0306793D01*
X0126911Y0308741D01*
X0128859Y0310689D01*
X0130807Y0308741D01*
X0130039Y0307973D02*
X0127679Y0307973D01*
X0127323Y0309153D02*
X0130395Y0309153D01*
X0129215Y0310333D02*
X0128503Y0310333D01*
X0135689Y0303859D02*
X0133741Y0301911D01*
X0131793Y0303859D01*
X0133741Y0305807D01*
X0135689Y0303859D01*
X0134921Y0303091D02*
X0132561Y0303091D01*
X0132205Y0304271D02*
X0135277Y0304271D01*
X0134097Y0305451D02*
X0133385Y0305451D01*
X0130807Y0293741D02*
X0128859Y0291793D01*
X0126911Y0293741D01*
X0128859Y0295689D01*
X0130807Y0293741D01*
X0130039Y0292973D02*
X0127679Y0292973D01*
X0127323Y0294153D02*
X0130395Y0294153D01*
X0129215Y0295333D02*
X0128503Y0295333D01*
X0135689Y0288859D02*
X0133741Y0286911D01*
X0131793Y0288859D01*
X0133741Y0290807D01*
X0135689Y0288859D01*
X0134921Y0288091D02*
X0132561Y0288091D01*
X0132205Y0289271D02*
X0135277Y0289271D01*
X0134097Y0290451D02*
X0133385Y0290451D01*
X0130807Y0278741D02*
X0128859Y0276793D01*
X0126911Y0278741D01*
X0128859Y0280689D01*
X0130807Y0278741D01*
X0130039Y0277973D02*
X0127679Y0277973D01*
X0127323Y0279153D02*
X0130395Y0279153D01*
X0129215Y0280333D02*
X0128503Y0280333D01*
X0135689Y0273859D02*
X0133741Y0271911D01*
X0131793Y0273859D01*
X0133741Y0275807D01*
X0135689Y0273859D01*
X0134921Y0273091D02*
X0132561Y0273091D01*
X0132205Y0274271D02*
X0135277Y0274271D01*
X0134097Y0275451D02*
X0133385Y0275451D01*
X0143859Y0276793D02*
X0145807Y0278741D01*
X0143859Y0276793D02*
X0141911Y0278741D01*
X0143859Y0280689D01*
X0145807Y0278741D01*
X0145039Y0277973D02*
X0142679Y0277973D01*
X0142323Y0279153D02*
X0145395Y0279153D01*
X0144215Y0280333D02*
X0143503Y0280333D01*
X0150689Y0273859D02*
X0148741Y0271911D01*
X0146793Y0273859D01*
X0148741Y0275807D01*
X0150689Y0273859D01*
X0149921Y0273091D02*
X0147561Y0273091D01*
X0147205Y0274271D02*
X0150277Y0274271D01*
X0149097Y0275451D02*
X0148385Y0275451D01*
X0148741Y0286911D02*
X0150689Y0288859D01*
X0148741Y0286911D02*
X0146793Y0288859D01*
X0148741Y0290807D01*
X0150689Y0288859D01*
X0149921Y0288091D02*
X0147561Y0288091D01*
X0147205Y0289271D02*
X0150277Y0289271D01*
X0149097Y0290451D02*
X0148385Y0290451D01*
X0145807Y0293741D02*
X0143859Y0291793D01*
X0141911Y0293741D01*
X0143859Y0295689D01*
X0145807Y0293741D01*
X0145039Y0292973D02*
X0142679Y0292973D01*
X0142323Y0294153D02*
X0145395Y0294153D01*
X0144215Y0295333D02*
X0143503Y0295333D01*
X0148741Y0301911D02*
X0150689Y0303859D01*
X0148741Y0301911D02*
X0146793Y0303859D01*
X0148741Y0305807D01*
X0150689Y0303859D01*
X0149921Y0303091D02*
X0147561Y0303091D01*
X0147205Y0304271D02*
X0150277Y0304271D01*
X0149097Y0305451D02*
X0148385Y0305451D01*
X0145807Y0308741D02*
X0143859Y0306793D01*
X0141911Y0308741D01*
X0143859Y0310689D01*
X0145807Y0308741D01*
X0145039Y0307973D02*
X0142679Y0307973D01*
X0142323Y0309153D02*
X0145395Y0309153D01*
X0144215Y0310333D02*
X0143503Y0310333D01*
X0148741Y0316911D02*
X0150689Y0318859D01*
X0148741Y0316911D02*
X0146793Y0318859D01*
X0148741Y0320807D01*
X0150689Y0318859D01*
X0149921Y0318091D02*
X0147561Y0318091D01*
X0147205Y0319271D02*
X0150277Y0319271D01*
X0149097Y0320451D02*
X0148385Y0320451D01*
X0145807Y0323741D02*
X0143859Y0321793D01*
X0141911Y0323741D01*
X0143859Y0325689D01*
X0145807Y0323741D01*
X0145039Y0322973D02*
X0142679Y0322973D01*
X0142323Y0324153D02*
X0145395Y0324153D01*
X0144215Y0325333D02*
X0143503Y0325333D01*
X0148741Y0331911D02*
X0150689Y0333859D01*
X0148741Y0331911D02*
X0146793Y0333859D01*
X0148741Y0335807D01*
X0150689Y0333859D01*
X0149921Y0333091D02*
X0147561Y0333091D01*
X0147205Y0334271D02*
X0150277Y0334271D01*
X0149097Y0335451D02*
X0148385Y0335451D01*
X0145807Y0338741D02*
X0143859Y0336793D01*
X0141911Y0338741D01*
X0143859Y0340689D01*
X0145807Y0338741D01*
X0145039Y0337973D02*
X0142679Y0337973D01*
X0142323Y0339153D02*
X0145395Y0339153D01*
X0144215Y0340333D02*
X0143503Y0340333D01*
X0148741Y0349411D02*
X0150689Y0351359D01*
X0148741Y0349411D02*
X0146793Y0351359D01*
X0148741Y0353307D01*
X0150689Y0351359D01*
X0149921Y0350591D02*
X0147561Y0350591D01*
X0147205Y0351771D02*
X0150277Y0351771D01*
X0149097Y0352951D02*
X0148385Y0352951D01*
X0145807Y0356241D02*
X0143859Y0354293D01*
X0141911Y0356241D01*
X0143859Y0358189D01*
X0145807Y0356241D01*
X0145039Y0355473D02*
X0142679Y0355473D01*
X0142323Y0356653D02*
X0145395Y0356653D01*
X0144215Y0357833D02*
X0143503Y0357833D01*
X0158859Y0354293D02*
X0160807Y0356241D01*
X0158859Y0354293D02*
X0156911Y0356241D01*
X0158859Y0358189D01*
X0160807Y0356241D01*
X0160039Y0355473D02*
X0157679Y0355473D01*
X0157323Y0356653D02*
X0160395Y0356653D01*
X0159215Y0357833D02*
X0158503Y0357833D01*
X0165689Y0351359D02*
X0163741Y0349411D01*
X0161793Y0351359D01*
X0163741Y0353307D01*
X0165689Y0351359D01*
X0164921Y0350591D02*
X0162561Y0350591D01*
X0162205Y0351771D02*
X0165277Y0351771D01*
X0164097Y0352951D02*
X0163385Y0352951D01*
X0160807Y0338741D02*
X0158859Y0336793D01*
X0156911Y0338741D01*
X0158859Y0340689D01*
X0160807Y0338741D01*
X0160039Y0337973D02*
X0157679Y0337973D01*
X0157323Y0339153D02*
X0160395Y0339153D01*
X0159215Y0340333D02*
X0158503Y0340333D01*
X0165689Y0333859D02*
X0163741Y0331911D01*
X0161793Y0333859D01*
X0163741Y0335807D01*
X0165689Y0333859D01*
X0164921Y0333091D02*
X0162561Y0333091D01*
X0162205Y0334271D02*
X0165277Y0334271D01*
X0164097Y0335451D02*
X0163385Y0335451D01*
X0160807Y0323741D02*
X0158859Y0321793D01*
X0156911Y0323741D01*
X0158859Y0325689D01*
X0160807Y0323741D01*
X0160039Y0322973D02*
X0157679Y0322973D01*
X0157323Y0324153D02*
X0160395Y0324153D01*
X0159215Y0325333D02*
X0158503Y0325333D01*
X0165689Y0318859D02*
X0163741Y0316911D01*
X0161793Y0318859D01*
X0163741Y0320807D01*
X0165689Y0318859D01*
X0164921Y0318091D02*
X0162561Y0318091D01*
X0162205Y0319271D02*
X0165277Y0319271D01*
X0164097Y0320451D02*
X0163385Y0320451D01*
X0160807Y0308741D02*
X0158859Y0306793D01*
X0156911Y0308741D01*
X0158859Y0310689D01*
X0160807Y0308741D01*
X0160039Y0307973D02*
X0157679Y0307973D01*
X0157323Y0309153D02*
X0160395Y0309153D01*
X0159215Y0310333D02*
X0158503Y0310333D01*
X0165689Y0303859D02*
X0163741Y0301911D01*
X0161793Y0303859D01*
X0163741Y0305807D01*
X0165689Y0303859D01*
X0164921Y0303091D02*
X0162561Y0303091D01*
X0162205Y0304271D02*
X0165277Y0304271D01*
X0164097Y0305451D02*
X0163385Y0305451D01*
X0160807Y0293741D02*
X0158859Y0291793D01*
X0156911Y0293741D01*
X0158859Y0295689D01*
X0160807Y0293741D01*
X0160039Y0292973D02*
X0157679Y0292973D01*
X0157323Y0294153D02*
X0160395Y0294153D01*
X0159215Y0295333D02*
X0158503Y0295333D01*
X0165689Y0288859D02*
X0163741Y0286911D01*
X0161793Y0288859D01*
X0163741Y0290807D01*
X0165689Y0288859D01*
X0164921Y0288091D02*
X0162561Y0288091D01*
X0162205Y0289271D02*
X0165277Y0289271D01*
X0164097Y0290451D02*
X0163385Y0290451D01*
X0160807Y0278741D02*
X0158859Y0276793D01*
X0156911Y0278741D01*
X0158859Y0280689D01*
X0160807Y0278741D01*
X0160039Y0277973D02*
X0157679Y0277973D01*
X0157323Y0279153D02*
X0160395Y0279153D01*
X0159215Y0280333D02*
X0158503Y0280333D01*
X0165689Y0273859D02*
X0163741Y0271911D01*
X0161793Y0273859D01*
X0163741Y0275807D01*
X0165689Y0273859D01*
X0164921Y0273091D02*
X0162561Y0273091D01*
X0162205Y0274271D02*
X0165277Y0274271D01*
X0164097Y0275451D02*
X0163385Y0275451D01*
X0173859Y0276793D02*
X0175807Y0278741D01*
X0173859Y0276793D02*
X0171911Y0278741D01*
X0173859Y0280689D01*
X0175807Y0278741D01*
X0175039Y0277973D02*
X0172679Y0277973D01*
X0172323Y0279153D02*
X0175395Y0279153D01*
X0174215Y0280333D02*
X0173503Y0280333D01*
X0180689Y0273859D02*
X0178741Y0271911D01*
X0176793Y0273859D01*
X0178741Y0275807D01*
X0180689Y0273859D01*
X0179921Y0273091D02*
X0177561Y0273091D01*
X0177205Y0274271D02*
X0180277Y0274271D01*
X0179097Y0275451D02*
X0178385Y0275451D01*
X0178741Y0286911D02*
X0180689Y0288859D01*
X0178741Y0286911D02*
X0176793Y0288859D01*
X0178741Y0290807D01*
X0180689Y0288859D01*
X0179921Y0288091D02*
X0177561Y0288091D01*
X0177205Y0289271D02*
X0180277Y0289271D01*
X0179097Y0290451D02*
X0178385Y0290451D01*
X0175807Y0293741D02*
X0173859Y0291793D01*
X0171911Y0293741D01*
X0173859Y0295689D01*
X0175807Y0293741D01*
X0175039Y0292973D02*
X0172679Y0292973D01*
X0172323Y0294153D02*
X0175395Y0294153D01*
X0174215Y0295333D02*
X0173503Y0295333D01*
X0178741Y0301911D02*
X0180689Y0303859D01*
X0178741Y0301911D02*
X0176793Y0303859D01*
X0178741Y0305807D01*
X0180689Y0303859D01*
X0179921Y0303091D02*
X0177561Y0303091D01*
X0177205Y0304271D02*
X0180277Y0304271D01*
X0179097Y0305451D02*
X0178385Y0305451D01*
X0175807Y0308741D02*
X0173859Y0306793D01*
X0171911Y0308741D01*
X0173859Y0310689D01*
X0175807Y0308741D01*
X0175039Y0307973D02*
X0172679Y0307973D01*
X0172323Y0309153D02*
X0175395Y0309153D01*
X0174215Y0310333D02*
X0173503Y0310333D01*
X0178741Y0316911D02*
X0180689Y0318859D01*
X0178741Y0316911D02*
X0176793Y0318859D01*
X0178741Y0320807D01*
X0180689Y0318859D01*
X0179921Y0318091D02*
X0177561Y0318091D01*
X0177205Y0319271D02*
X0180277Y0319271D01*
X0179097Y0320451D02*
X0178385Y0320451D01*
X0175807Y0323741D02*
X0173859Y0321793D01*
X0171911Y0323741D01*
X0173859Y0325689D01*
X0175807Y0323741D01*
X0175039Y0322973D02*
X0172679Y0322973D01*
X0172323Y0324153D02*
X0175395Y0324153D01*
X0174215Y0325333D02*
X0173503Y0325333D01*
X0178741Y0331911D02*
X0180689Y0333859D01*
X0178741Y0331911D02*
X0176793Y0333859D01*
X0178741Y0335807D01*
X0180689Y0333859D01*
X0179921Y0333091D02*
X0177561Y0333091D01*
X0177205Y0334271D02*
X0180277Y0334271D01*
X0179097Y0335451D02*
X0178385Y0335451D01*
X0175807Y0338741D02*
X0173859Y0336793D01*
X0171911Y0338741D01*
X0173859Y0340689D01*
X0175807Y0338741D01*
X0175039Y0337973D02*
X0172679Y0337973D01*
X0172323Y0339153D02*
X0175395Y0339153D01*
X0174215Y0340333D02*
X0173503Y0340333D01*
X0178741Y0346911D02*
X0180689Y0348859D01*
X0178741Y0346911D02*
X0176793Y0348859D01*
X0178741Y0350807D01*
X0180689Y0348859D01*
X0179921Y0348091D02*
X0177561Y0348091D01*
X0177205Y0349271D02*
X0180277Y0349271D01*
X0179097Y0350451D02*
X0178385Y0350451D01*
X0175807Y0353741D02*
X0173859Y0351793D01*
X0171911Y0353741D01*
X0173859Y0355689D01*
X0175807Y0353741D01*
X0175039Y0352973D02*
X0172679Y0352973D01*
X0172323Y0354153D02*
X0175395Y0354153D01*
X0174215Y0355333D02*
X0173503Y0355333D01*
D11*
X0098500Y0301300D03*
X0098500Y0296300D03*
X0098500Y0291300D03*
X0098500Y0286300D03*
X0098500Y0281300D03*
X0098500Y0276300D03*
X0098500Y0271300D03*
X0079100Y0271300D03*
X0079100Y0276300D03*
X0079100Y0281300D03*
X0079100Y0286300D03*
X0079100Y0291300D03*
X0079100Y0296300D03*
X0079100Y0301300D03*
D12*
X0090454Y0316300D03*
X0097146Y0316300D03*
D13*
X0051500Y0321300D03*
X0051500Y0307100D03*
X0033800Y0307100D03*
X0033800Y0321300D03*
X0033800Y0357100D03*
X0051500Y0357100D03*
X0051500Y0271300D03*
X0033800Y0271300D03*
D14*
X0075355Y0316300D03*
X0082245Y0316300D03*
D15*
X0086300Y0332580D03*
X0076300Y0332580D03*
X0076300Y0355020D03*
X0086300Y0355020D03*
X0096300Y0355020D03*
X0096300Y0332580D03*
D16*
X0029250Y0269374D02*
X0028317Y0269913D01*
X0027413Y0270817D01*
X0026773Y0271925D01*
X0026442Y0273160D01*
X0026400Y0273800D01*
X0026400Y0353800D01*
X0026442Y0354440D01*
X0026773Y0355675D01*
X0027413Y0356783D01*
X0028317Y0357687D01*
X0029250Y0358226D01*
X0029250Y0357675D01*
X0033225Y0357675D01*
X0033225Y0356525D01*
X0034375Y0356525D01*
X0034375Y0357675D01*
X0038350Y0357675D01*
X0038350Y0358700D01*
X0039269Y0358700D01*
X0040208Y0358311D01*
X0042392Y0358311D01*
X0042550Y0358377D01*
X0042708Y0358311D01*
X0044892Y0358311D01*
X0045050Y0358377D01*
X0045208Y0358311D01*
X0047350Y0358311D01*
X0047350Y0352370D01*
X0048170Y0351550D01*
X0049300Y0351550D01*
X0049300Y0326850D01*
X0048170Y0326850D01*
X0047350Y0326030D01*
X0047350Y0316570D01*
X0048170Y0315750D01*
X0054830Y0315750D01*
X0055650Y0316570D01*
X0055650Y0326030D01*
X0054830Y0326850D01*
X0053700Y0326850D01*
X0053700Y0351550D01*
X0054830Y0351550D01*
X0055650Y0352370D01*
X0055650Y0354900D01*
X0068753Y0354900D01*
X0068851Y0354664D01*
X0069664Y0353851D01*
X0070725Y0353411D01*
X0071875Y0353411D01*
X0072892Y0353832D01*
X0072892Y0350700D01*
X0073712Y0349880D01*
X0074100Y0349880D01*
X0074100Y0348186D01*
X0073851Y0347936D01*
X0073411Y0346875D01*
X0073411Y0345725D01*
X0073851Y0344664D01*
X0074664Y0343851D01*
X0075725Y0343411D01*
X0076875Y0343411D01*
X0077936Y0343851D01*
X0078749Y0344664D01*
X0079189Y0345725D01*
X0079189Y0346875D01*
X0078749Y0347936D01*
X0078500Y0348186D01*
X0078500Y0349880D01*
X0078888Y0349880D01*
X0079708Y0350700D01*
X0079708Y0358700D01*
X0082892Y0358700D01*
X0082892Y0350700D01*
X0083647Y0349945D01*
X0083411Y0349375D01*
X0083411Y0348225D01*
X0083851Y0347164D01*
X0084100Y0346914D01*
X0084100Y0345389D01*
X0088500Y0340989D01*
X0088500Y0337720D01*
X0083712Y0337720D01*
X0082892Y0336900D01*
X0082892Y0328259D01*
X0083712Y0327439D01*
X0084100Y0327439D01*
X0084100Y0320226D01*
X0082478Y0320226D01*
X0082478Y0316534D01*
X0082011Y0316534D01*
X0082011Y0320226D01*
X0079941Y0320226D01*
X0079483Y0320103D01*
X0079073Y0319866D01*
X0078738Y0319531D01*
X0078576Y0319252D01*
X0078002Y0319826D01*
X0072708Y0319826D01*
X0071888Y0319006D01*
X0071888Y0318500D01*
X0070686Y0318500D01*
X0070436Y0318749D01*
X0069375Y0319189D01*
X0068225Y0319189D01*
X0067164Y0318749D01*
X0066351Y0317936D01*
X0066000Y0317089D01*
X0066000Y0317889D01*
X0075551Y0327439D01*
X0078888Y0327439D01*
X0079708Y0328259D01*
X0079708Y0336900D01*
X0078888Y0337720D01*
X0073712Y0337720D01*
X0072892Y0336900D01*
X0072892Y0331003D01*
X0062889Y0321000D01*
X0061600Y0319711D01*
X0061600Y0309089D01*
X0064589Y0306100D01*
X0068189Y0306100D01*
X0073800Y0300489D01*
X0073800Y0299620D01*
X0074620Y0298800D01*
X0073800Y0297980D01*
X0073800Y0294620D01*
X0074620Y0293800D01*
X0073800Y0292980D01*
X0073800Y0289620D01*
X0074620Y0288800D01*
X0074320Y0288500D01*
X0066586Y0288500D01*
X0065936Y0289149D01*
X0064875Y0289589D01*
X0063725Y0289589D01*
X0062664Y0289149D01*
X0061851Y0288336D01*
X0061411Y0287275D01*
X0061411Y0286125D01*
X0061851Y0285064D01*
X0062664Y0284251D01*
X0063725Y0283811D01*
X0064875Y0283811D01*
X0065572Y0284100D01*
X0074320Y0284100D01*
X0074620Y0283800D01*
X0083580Y0283800D01*
X0084400Y0284620D01*
X0084400Y0287980D01*
X0083580Y0288800D01*
X0074620Y0288800D01*
X0083580Y0288800D01*
X0084080Y0289300D01*
X0085611Y0289300D01*
X0086900Y0290589D01*
X0088254Y0291942D01*
X0088254Y0288735D01*
X0089800Y0287189D01*
X0088925Y0287189D01*
X0087864Y0286749D01*
X0087051Y0285936D01*
X0086611Y0284875D01*
X0086611Y0284522D01*
X0085589Y0283500D01*
X0083880Y0283500D01*
X0083580Y0283800D01*
X0074620Y0283800D01*
X0073800Y0282980D01*
X0073800Y0279620D01*
X0074620Y0278800D01*
X0073947Y0278127D01*
X0073325Y0278749D01*
X0072264Y0279189D01*
X0071114Y0279189D01*
X0070052Y0278749D01*
X0069803Y0278500D01*
X0055589Y0278500D01*
X0053939Y0276850D01*
X0053700Y0276850D01*
X0053700Y0301550D01*
X0054830Y0301550D01*
X0055650Y0302370D01*
X0055650Y0311830D01*
X0054830Y0312650D01*
X0048170Y0312650D01*
X0047350Y0311830D01*
X0047350Y0302370D01*
X0048170Y0301550D01*
X0049300Y0301550D01*
X0049300Y0276850D01*
X0048170Y0276850D01*
X0047350Y0276030D01*
X0047350Y0269289D01*
X0045208Y0269289D01*
X0045050Y0269223D01*
X0044892Y0269289D01*
X0042708Y0269289D01*
X0042550Y0269223D01*
X0042392Y0269289D01*
X0040208Y0269289D01*
X0039269Y0268900D01*
X0038350Y0268900D01*
X0038350Y0270725D01*
X0034375Y0270725D01*
X0034375Y0271875D01*
X0033225Y0271875D01*
X0033225Y0277250D01*
X0030813Y0277250D01*
X0030355Y0277127D01*
X0029945Y0276890D01*
X0029610Y0276555D01*
X0029373Y0276145D01*
X0029250Y0275687D01*
X0029250Y0271875D01*
X0033225Y0271875D01*
X0033225Y0270725D01*
X0029250Y0270725D01*
X0029250Y0269374D01*
X0027381Y0270872D02*
X0033225Y0270872D01*
X0033800Y0271300D02*
X0033800Y0307100D01*
X0033800Y0321300D01*
X0033800Y0331181D01*
X0041300Y0338681D01*
X0041300Y0338800D01*
X0033800Y0331181D02*
X0033800Y0357100D01*
X0034375Y0357192D02*
X0047350Y0357192D01*
X0047350Y0355593D02*
X0038350Y0355593D01*
X0038350Y0356525D02*
X0034375Y0356525D01*
X0034375Y0351150D01*
X0036787Y0351150D01*
X0037245Y0351273D01*
X0037655Y0351510D01*
X0037990Y0351845D01*
X0038227Y0352255D01*
X0038350Y0352713D01*
X0038350Y0356525D01*
X0038350Y0353995D02*
X0047350Y0353995D01*
X0047350Y0352396D02*
X0038265Y0352396D01*
X0034375Y0352396D02*
X0033225Y0352396D01*
X0033225Y0351150D02*
X0033225Y0356525D01*
X0029250Y0356525D01*
X0029250Y0352713D01*
X0029373Y0352255D01*
X0029610Y0351845D01*
X0029945Y0351510D01*
X0030355Y0351273D01*
X0030813Y0351150D01*
X0033225Y0351150D01*
X0033225Y0353995D02*
X0034375Y0353995D01*
X0034375Y0355593D02*
X0033225Y0355593D01*
X0033225Y0357192D02*
X0027821Y0357192D01*
X0026751Y0355593D02*
X0029250Y0355593D01*
X0029250Y0353995D02*
X0026413Y0353995D01*
X0026400Y0352396D02*
X0029335Y0352396D01*
X0026400Y0350798D02*
X0049300Y0350798D01*
X0049300Y0349199D02*
X0026400Y0349199D01*
X0026400Y0347601D02*
X0049300Y0347601D01*
X0049300Y0346002D02*
X0026400Y0346002D01*
X0026400Y0344404D02*
X0049300Y0344404D01*
X0049300Y0342805D02*
X0026400Y0342805D01*
X0026400Y0341207D02*
X0049300Y0341207D01*
X0049300Y0339608D02*
X0026400Y0339608D01*
X0026400Y0338010D02*
X0049300Y0338010D01*
X0049300Y0336411D02*
X0026400Y0336411D01*
X0026400Y0334813D02*
X0049300Y0334813D01*
X0049300Y0333214D02*
X0026400Y0333214D01*
X0026400Y0331616D02*
X0049300Y0331616D01*
X0049300Y0330017D02*
X0026400Y0330017D01*
X0026400Y0328419D02*
X0049300Y0328419D01*
X0048140Y0326820D02*
X0037725Y0326820D01*
X0037655Y0326890D02*
X0037245Y0327127D01*
X0036787Y0327250D01*
X0034375Y0327250D01*
X0034375Y0321875D01*
X0033225Y0321875D01*
X0033225Y0327250D01*
X0030813Y0327250D01*
X0030355Y0327127D01*
X0029945Y0326890D01*
X0029610Y0326555D01*
X0029373Y0326145D01*
X0029250Y0325687D01*
X0029250Y0321875D01*
X0033225Y0321875D01*
X0033225Y0320725D01*
X0034375Y0320725D01*
X0034375Y0321875D01*
X0038350Y0321875D01*
X0038350Y0325687D01*
X0038227Y0326145D01*
X0037990Y0326555D01*
X0037655Y0326890D01*
X0038350Y0325222D02*
X0047350Y0325222D01*
X0047350Y0323623D02*
X0038350Y0323623D01*
X0038350Y0322025D02*
X0047350Y0322025D01*
X0047350Y0320426D02*
X0038350Y0320426D01*
X0038350Y0320725D02*
X0038350Y0316913D01*
X0038227Y0316455D01*
X0037990Y0316045D01*
X0037655Y0315710D01*
X0037245Y0315473D01*
X0036787Y0315350D01*
X0034375Y0315350D01*
X0034375Y0320725D01*
X0038350Y0320725D01*
X0038350Y0318828D02*
X0047350Y0318828D01*
X0047350Y0317229D02*
X0038350Y0317229D01*
X0037518Y0315631D02*
X0061600Y0315631D01*
X0061600Y0317229D02*
X0055650Y0317229D01*
X0055650Y0318828D02*
X0061600Y0318828D01*
X0062315Y0320426D02*
X0055650Y0320426D01*
X0055650Y0322025D02*
X0063913Y0322025D01*
X0065512Y0323623D02*
X0055650Y0323623D01*
X0055650Y0325222D02*
X0067110Y0325222D01*
X0068709Y0326820D02*
X0054860Y0326820D01*
X0053700Y0328419D02*
X0070307Y0328419D01*
X0071906Y0330017D02*
X0053700Y0330017D01*
X0053700Y0331616D02*
X0072892Y0331616D01*
X0072892Y0333214D02*
X0053700Y0333214D01*
X0053700Y0334813D02*
X0072892Y0334813D01*
X0072892Y0336411D02*
X0053700Y0336411D01*
X0053700Y0338010D02*
X0088500Y0338010D01*
X0088500Y0339608D02*
X0053700Y0339608D01*
X0053700Y0341207D02*
X0088282Y0341207D01*
X0086683Y0342805D02*
X0053700Y0342805D01*
X0053700Y0344404D02*
X0074111Y0344404D01*
X0073411Y0346002D02*
X0053700Y0346002D01*
X0053700Y0347601D02*
X0073712Y0347601D01*
X0074100Y0349199D02*
X0053700Y0349199D01*
X0053700Y0350798D02*
X0072892Y0350798D01*
X0072892Y0352396D02*
X0055650Y0352396D01*
X0055650Y0353995D02*
X0069520Y0353995D01*
X0071300Y0356300D02*
X0070500Y0357100D01*
X0051500Y0357100D01*
X0051500Y0321300D01*
X0047954Y0312434D02*
X0037912Y0312434D01*
X0037990Y0312355D02*
X0037655Y0312690D01*
X0037245Y0312927D01*
X0036787Y0313050D01*
X0034375Y0313050D01*
X0034375Y0307675D01*
X0033225Y0307675D01*
X0033225Y0313050D01*
X0030813Y0313050D01*
X0030355Y0312927D01*
X0029945Y0312690D01*
X0029610Y0312355D01*
X0029373Y0311945D01*
X0029250Y0311487D01*
X0029250Y0307675D01*
X0033225Y0307675D01*
X0033225Y0306525D01*
X0034375Y0306525D01*
X0034375Y0307675D01*
X0038350Y0307675D01*
X0038350Y0311487D01*
X0038227Y0311945D01*
X0037990Y0312355D01*
X0038350Y0310835D02*
X0047350Y0310835D01*
X0047350Y0309237D02*
X0038350Y0309237D01*
X0038350Y0306525D02*
X0038350Y0302713D01*
X0038227Y0302255D01*
X0037990Y0301845D01*
X0037655Y0301510D01*
X0037245Y0301273D01*
X0036787Y0301150D01*
X0034375Y0301150D01*
X0034375Y0306525D01*
X0038350Y0306525D01*
X0038350Y0306039D02*
X0047350Y0306039D01*
X0047350Y0304441D02*
X0038350Y0304441D01*
X0038350Y0302842D02*
X0047350Y0302842D01*
X0049300Y0301244D02*
X0037138Y0301244D01*
X0034375Y0301244D02*
X0033225Y0301244D01*
X0033225Y0301150D02*
X0033225Y0306525D01*
X0029250Y0306525D01*
X0029250Y0302713D01*
X0029373Y0302255D01*
X0029610Y0301845D01*
X0029945Y0301510D01*
X0030355Y0301273D01*
X0030813Y0301150D01*
X0033225Y0301150D01*
X0033225Y0302842D02*
X0034375Y0302842D01*
X0034375Y0304441D02*
X0033225Y0304441D01*
X0033225Y0306039D02*
X0034375Y0306039D01*
X0034375Y0307638D02*
X0047350Y0307638D01*
X0051500Y0307100D02*
X0051500Y0271300D01*
X0056500Y0276300D01*
X0071689Y0276300D01*
X0069803Y0274100D02*
X0070052Y0273851D01*
X0071114Y0273411D01*
X0072264Y0273411D01*
X0073325Y0273851D01*
X0073947Y0274473D01*
X0074402Y0274018D01*
X0074095Y0273840D01*
X0073760Y0273505D01*
X0073523Y0273095D01*
X0073400Y0272637D01*
X0073400Y0271300D01*
X0079100Y0271300D01*
X0070050Y0271300D01*
X0068800Y0272550D01*
X0069834Y0274069D02*
X0057381Y0274069D01*
X0057411Y0274100D02*
X0069803Y0274100D01*
X0073400Y0272471D02*
X0055782Y0272471D01*
X0055650Y0272339D02*
X0057411Y0274100D01*
X0055650Y0272339D02*
X0055650Y0268900D01*
X0073954Y0268900D01*
X0073760Y0269095D01*
X0073523Y0269505D01*
X0073400Y0269963D01*
X0073400Y0271300D01*
X0079100Y0271300D01*
X0084800Y0271300D01*
X0084800Y0272637D01*
X0084677Y0273095D01*
X0084440Y0273505D01*
X0084105Y0273840D01*
X0083798Y0274018D01*
X0083880Y0274100D01*
X0087211Y0274100D01*
X0089722Y0276611D01*
X0090075Y0276611D01*
X0091136Y0277051D01*
X0091949Y0277864D01*
X0092389Y0278925D01*
X0092389Y0280075D01*
X0091949Y0281136D01*
X0091186Y0281900D01*
X0091949Y0282664D01*
X0092389Y0283725D01*
X0092389Y0284600D01*
X0092889Y0284100D01*
X0093720Y0284100D01*
X0094020Y0283800D01*
X0093200Y0282980D01*
X0093200Y0279620D01*
X0094020Y0278800D01*
X0093200Y0277980D01*
X0093200Y0274620D01*
X0094020Y0273800D01*
X0093200Y0272980D01*
X0093200Y0271789D01*
X0093186Y0271789D01*
X0092936Y0272038D01*
X0091875Y0272478D01*
X0090725Y0272478D01*
X0089664Y0272038D01*
X0088851Y0271225D01*
X0088411Y0270164D01*
X0088411Y0269014D01*
X0088458Y0268900D01*
X0084246Y0268900D01*
X0084440Y0269095D01*
X0084677Y0269505D01*
X0084800Y0269963D01*
X0084800Y0271300D01*
X0079100Y0271300D01*
X0079100Y0271300D01*
X0079100Y0271300D01*
X0079100Y0276300D02*
X0086300Y0276300D01*
X0089500Y0279500D01*
X0092228Y0280463D02*
X0093200Y0280463D01*
X0093200Y0282062D02*
X0091347Y0282062D01*
X0092362Y0283660D02*
X0093880Y0283660D01*
X0094020Y0283800D02*
X0102980Y0283800D01*
X0103280Y0283500D01*
X0105389Y0283500D01*
X0105911Y0284022D01*
X0105911Y0284375D01*
X0106351Y0285436D01*
X0107164Y0286249D01*
X0108225Y0286689D01*
X0109375Y0286689D01*
X0110436Y0286249D01*
X0111249Y0285436D01*
X0111659Y0284448D01*
X0111659Y0291178D01*
X0111325Y0291511D01*
X0111589Y0290875D01*
X0111589Y0289725D01*
X0111149Y0288664D01*
X0110336Y0287851D01*
X0109275Y0287411D01*
X0108125Y0287411D01*
X0107064Y0287851D01*
X0106251Y0288664D01*
X0105811Y0289725D01*
X0105811Y0289941D01*
X0105595Y0289941D01*
X0104534Y0290381D01*
X0103800Y0291114D01*
X0103800Y0289620D01*
X0102980Y0288800D01*
X0095314Y0288800D01*
X0095314Y0288800D01*
X0102980Y0288800D01*
X0103800Y0287980D01*
X0103800Y0284620D01*
X0102980Y0283800D01*
X0094020Y0283800D01*
X0093800Y0286300D02*
X0098500Y0286300D01*
X0098500Y0281300D02*
X0106300Y0281300D01*
X0108800Y0283800D01*
X0109022Y0280911D02*
X0109375Y0280911D01*
X0110436Y0281351D01*
X0111249Y0282164D01*
X0111659Y0283152D01*
X0111659Y0281305D01*
X0109919Y0279566D01*
X0109919Y0277917D01*
X0113034Y0274802D01*
X0114683Y0274802D01*
X0117798Y0277917D01*
X0117798Y0279566D01*
X0116059Y0281305D01*
X0116059Y0282869D01*
X0116351Y0282164D01*
X0117164Y0281351D01*
X0118225Y0280911D01*
X0119375Y0280911D01*
X0120436Y0281351D01*
X0121249Y0282164D01*
X0121689Y0283225D01*
X0121689Y0284375D01*
X0121249Y0285436D01*
X0121000Y0285686D01*
X0121000Y0286353D01*
X0122681Y0288034D01*
X0122681Y0289683D01*
X0119778Y0292585D01*
X0119936Y0292651D01*
X0120749Y0293464D01*
X0121189Y0294525D01*
X0121189Y0295675D01*
X0120771Y0296685D01*
X0121249Y0297164D01*
X0121689Y0298225D01*
X0121689Y0299375D01*
X0121249Y0300436D01*
X0121000Y0300686D01*
X0121000Y0301353D01*
X0122681Y0303034D01*
X0122681Y0304683D01*
X0122679Y0304685D01*
X0124536Y0306541D01*
X0126295Y0306541D01*
X0126659Y0306178D01*
X0126659Y0296305D01*
X0124919Y0294566D01*
X0124919Y0292917D01*
X0126659Y0291178D01*
X0126659Y0281305D01*
X0124919Y0279566D01*
X0124919Y0277917D01*
X0126778Y0276059D01*
X0121305Y0276059D01*
X0119566Y0277798D01*
X0117917Y0277798D01*
X0114802Y0274683D01*
X0114802Y0273034D01*
X0114804Y0273032D01*
X0112872Y0271100D01*
X0109611Y0271100D01*
X0103800Y0276911D01*
X0103800Y0277980D01*
X0102980Y0278800D01*
X0094020Y0278800D01*
X0102980Y0278800D01*
X0103280Y0279100D01*
X0107211Y0279100D01*
X0109022Y0280911D01*
X0108575Y0280463D02*
X0110817Y0280463D01*
X0111147Y0282062D02*
X0111659Y0282062D01*
X0111659Y0285259D02*
X0111323Y0285259D01*
X0111659Y0286857D02*
X0103800Y0286857D01*
X0103800Y0285259D02*
X0106277Y0285259D01*
X0105549Y0283660D02*
X0103120Y0283660D01*
X0103045Y0278865D02*
X0109919Y0278865D01*
X0110570Y0277266D02*
X0103800Y0277266D01*
X0105043Y0275668D02*
X0112168Y0275668D01*
X0114802Y0274069D02*
X0106642Y0274069D01*
X0108241Y0272471D02*
X0114242Y0272471D01*
X0115549Y0275668D02*
X0115787Y0275668D01*
X0117147Y0277266D02*
X0117385Y0277266D01*
X0117798Y0278865D02*
X0124919Y0278865D01*
X0125570Y0277266D02*
X0120097Y0277266D01*
X0118741Y0273859D02*
X0133741Y0273859D01*
X0148741Y0273859D01*
X0163741Y0273859D01*
X0178741Y0273859D01*
X0173859Y0278741D02*
X0173859Y0293741D01*
X0173859Y0308741D01*
X0171359Y0308741D01*
X0166300Y0313800D01*
X0163741Y0318741D02*
X0161300Y0316300D01*
X0163741Y0318741D02*
X0163741Y0318859D01*
X0178741Y0318859D01*
X0173859Y0323741D02*
X0173800Y0323800D01*
X0166300Y0323800D01*
X0166300Y0328800D02*
X0166300Y0331300D01*
X0163741Y0333859D01*
X0158859Y0338741D02*
X0158859Y0338859D01*
X0163800Y0343800D01*
X0166300Y0348800D02*
X0163741Y0351359D01*
X0166124Y0353741D01*
X0173859Y0353741D01*
X0173859Y0338741D01*
X0173859Y0323741D01*
X0178800Y0328800D02*
X0178741Y0328859D01*
X0178741Y0333859D01*
X0178800Y0343800D02*
X0178741Y0343859D01*
X0178741Y0348859D01*
X0158859Y0356241D02*
X0158859Y0338741D01*
X0153624Y0338741D01*
X0148741Y0333859D01*
X0148741Y0328859D01*
X0148800Y0328800D01*
X0143859Y0323741D02*
X0143859Y0308741D01*
X0143859Y0293741D01*
X0143859Y0278741D01*
X0148800Y0283800D02*
X0148741Y0283859D01*
X0148741Y0288859D01*
X0148800Y0298800D02*
X0148800Y0303800D01*
X0148741Y0303859D01*
X0148800Y0313800D02*
X0148741Y0313859D01*
X0148741Y0318859D01*
X0143859Y0323741D02*
X0138624Y0323741D01*
X0133741Y0318859D01*
X0133741Y0313859D01*
X0133800Y0313800D01*
X0133741Y0303859D02*
X0133800Y0303800D01*
X0133800Y0298800D01*
X0128859Y0293741D02*
X0128859Y0278741D01*
X0125817Y0280463D02*
X0116900Y0280463D01*
X0116453Y0282062D02*
X0116059Y0282062D01*
X0118800Y0283800D02*
X0118800Y0288800D01*
X0118741Y0288859D01*
X0121504Y0286857D02*
X0126659Y0286857D01*
X0126659Y0285259D02*
X0121323Y0285259D01*
X0121689Y0283660D02*
X0126659Y0283660D01*
X0126659Y0282062D02*
X0121147Y0282062D01*
X0122681Y0288456D02*
X0126659Y0288456D01*
X0126659Y0290054D02*
X0122309Y0290054D01*
X0120711Y0291653D02*
X0126183Y0291653D01*
X0124919Y0293251D02*
X0120537Y0293251D01*
X0121189Y0294850D02*
X0125203Y0294850D01*
X0126659Y0296448D02*
X0120868Y0296448D01*
X0121615Y0298047D02*
X0126659Y0298047D01*
X0126659Y0299645D02*
X0121577Y0299645D01*
X0121000Y0301244D02*
X0126659Y0301244D01*
X0126659Y0302842D02*
X0122489Y0302842D01*
X0122681Y0304441D02*
X0126659Y0304441D01*
X0126659Y0306039D02*
X0124034Y0306039D01*
X0123624Y0308741D02*
X0118741Y0303859D01*
X0118800Y0303800D01*
X0118800Y0298800D01*
X0118300Y0295100D02*
X0116941Y0293741D01*
X0113859Y0293741D01*
X0113859Y0278741D01*
X0118741Y0273859D02*
X0113783Y0268900D01*
X0108700Y0268900D01*
X0101300Y0276300D01*
X0098500Y0276300D01*
X0100689Y0273800D02*
X0100689Y0273800D01*
X0094020Y0273800D01*
X0100689Y0273800D01*
X0098500Y0271300D02*
X0096789Y0269589D01*
X0091300Y0269589D01*
X0090708Y0272471D02*
X0084800Y0272471D01*
X0084800Y0270872D02*
X0088705Y0270872D01*
X0088411Y0269274D02*
X0084544Y0269274D01*
X0083849Y0274069D02*
X0093751Y0274069D01*
X0093200Y0272471D02*
X0091892Y0272471D01*
X0093200Y0275668D02*
X0088779Y0275668D01*
X0085754Y0278865D02*
X0083645Y0278865D01*
X0083580Y0278800D02*
X0083880Y0279100D01*
X0085989Y0279100D01*
X0085389Y0278500D01*
X0083880Y0278500D01*
X0083580Y0278800D01*
X0074620Y0278800D01*
X0083580Y0278800D01*
X0086500Y0281300D02*
X0089500Y0284300D01*
X0088125Y0286857D02*
X0084400Y0286857D01*
X0084400Y0285259D02*
X0086770Y0285259D01*
X0085749Y0283660D02*
X0083720Y0283660D01*
X0086500Y0281300D02*
X0079100Y0281300D01*
X0079100Y0286300D02*
X0064700Y0286300D01*
X0064300Y0286700D01*
X0061411Y0286857D02*
X0053700Y0286857D01*
X0053700Y0285259D02*
X0061770Y0285259D01*
X0061970Y0288456D02*
X0053700Y0288456D01*
X0053700Y0290054D02*
X0073800Y0290054D01*
X0073800Y0291653D02*
X0053700Y0291653D01*
X0053700Y0293251D02*
X0074071Y0293251D01*
X0074620Y0293800D02*
X0083580Y0293800D01*
X0083680Y0293700D01*
X0083789Y0293700D01*
X0084175Y0294086D01*
X0084170Y0294100D01*
X0083880Y0294100D01*
X0083580Y0293800D01*
X0074620Y0293800D01*
X0073800Y0294850D02*
X0053700Y0294850D01*
X0053700Y0296448D02*
X0073800Y0296448D01*
X0073867Y0298047D02*
X0053700Y0298047D01*
X0053700Y0299645D02*
X0073800Y0299645D01*
X0074620Y0298800D02*
X0082860Y0298800D01*
X0074620Y0298800D01*
X0076100Y0301300D02*
X0069100Y0308300D01*
X0065500Y0308300D01*
X0063800Y0310000D01*
X0063800Y0318800D01*
X0076300Y0331300D01*
X0076300Y0332580D01*
X0079708Y0333214D02*
X0082892Y0333214D01*
X0082892Y0331616D02*
X0079708Y0331616D01*
X0079708Y0330017D02*
X0082892Y0330017D01*
X0082892Y0328419D02*
X0079708Y0328419D01*
X0084100Y0326820D02*
X0074931Y0326820D01*
X0073333Y0325222D02*
X0084100Y0325222D01*
X0084100Y0323623D02*
X0071734Y0323623D01*
X0070136Y0322025D02*
X0084100Y0322025D01*
X0084100Y0320426D02*
X0068537Y0320426D01*
X0067353Y0318828D02*
X0066939Y0318828D01*
X0066058Y0317229D02*
X0066000Y0317229D01*
X0066000Y0315511D02*
X0066351Y0314664D01*
X0067164Y0313851D01*
X0068225Y0313411D01*
X0069375Y0313411D01*
X0070436Y0313851D01*
X0070686Y0314100D01*
X0071888Y0314100D01*
X0071888Y0313594D01*
X0072708Y0312774D01*
X0078002Y0312774D01*
X0078576Y0313348D01*
X0078738Y0313069D01*
X0079073Y0312734D01*
X0079483Y0312497D01*
X0079941Y0312374D01*
X0082011Y0312374D01*
X0082011Y0316066D01*
X0082478Y0316066D01*
X0082478Y0312374D01*
X0084100Y0312374D01*
X0084100Y0303280D01*
X0083580Y0303800D01*
X0076711Y0303800D01*
X0071300Y0309211D01*
X0070011Y0310500D01*
X0066411Y0310500D01*
X0066000Y0310911D01*
X0066000Y0315511D01*
X0066000Y0314032D02*
X0066982Y0314032D01*
X0066000Y0312434D02*
X0079719Y0312434D01*
X0082011Y0312434D02*
X0082478Y0312434D01*
X0082478Y0314032D02*
X0082011Y0314032D01*
X0082011Y0315631D02*
X0082478Y0315631D01*
X0082245Y0316300D02*
X0081300Y0317245D01*
X0081300Y0338800D01*
X0058800Y0338800D01*
X0070247Y0318828D02*
X0071888Y0318828D01*
X0068800Y0316300D02*
X0075355Y0316300D01*
X0071888Y0314032D02*
X0070618Y0314032D01*
X0071275Y0309237D02*
X0084100Y0309237D01*
X0084100Y0310835D02*
X0066076Y0310835D01*
X0063051Y0307638D02*
X0055650Y0307638D01*
X0055650Y0309237D02*
X0061600Y0309237D01*
X0061600Y0310835D02*
X0055650Y0310835D01*
X0055046Y0312434D02*
X0061600Y0312434D01*
X0061600Y0314032D02*
X0026400Y0314032D01*
X0026400Y0312434D02*
X0029688Y0312434D01*
X0029250Y0310835D02*
X0026400Y0310835D01*
X0026400Y0309237D02*
X0029250Y0309237D01*
X0029250Y0306039D02*
X0026400Y0306039D01*
X0026400Y0304441D02*
X0029250Y0304441D01*
X0029250Y0302842D02*
X0026400Y0302842D01*
X0026400Y0301244D02*
X0030462Y0301244D01*
X0026400Y0299645D02*
X0049300Y0299645D01*
X0049300Y0298047D02*
X0026400Y0298047D01*
X0026400Y0296448D02*
X0049300Y0296448D01*
X0049300Y0294850D02*
X0026400Y0294850D01*
X0026400Y0293251D02*
X0049300Y0293251D01*
X0049300Y0291653D02*
X0026400Y0291653D01*
X0026400Y0290054D02*
X0049300Y0290054D01*
X0049300Y0288456D02*
X0026400Y0288456D01*
X0026400Y0286857D02*
X0049300Y0286857D01*
X0049300Y0285259D02*
X0026400Y0285259D01*
X0026400Y0283660D02*
X0049300Y0283660D01*
X0049300Y0282062D02*
X0026400Y0282062D01*
X0026400Y0280463D02*
X0049300Y0280463D01*
X0049300Y0278865D02*
X0026400Y0278865D01*
X0026400Y0277266D02*
X0049300Y0277266D01*
X0047350Y0275668D02*
X0038350Y0275668D01*
X0038350Y0275687D02*
X0038227Y0276145D01*
X0037990Y0276555D01*
X0037655Y0276890D01*
X0037245Y0277127D01*
X0036787Y0277250D01*
X0034375Y0277250D01*
X0034375Y0271875D01*
X0038350Y0271875D01*
X0038350Y0275687D01*
X0038350Y0274069D02*
X0047350Y0274069D01*
X0047350Y0272471D02*
X0038350Y0272471D01*
X0038350Y0269274D02*
X0040171Y0269274D01*
X0042429Y0269274D02*
X0042671Y0269274D01*
X0044929Y0269274D02*
X0045171Y0269274D01*
X0047350Y0270872D02*
X0034375Y0270872D01*
X0034375Y0272471D02*
X0033225Y0272471D01*
X0033225Y0274069D02*
X0034375Y0274069D01*
X0034375Y0275668D02*
X0033225Y0275668D01*
X0029250Y0275668D02*
X0026400Y0275668D01*
X0026400Y0274069D02*
X0029250Y0274069D01*
X0029250Y0272471D02*
X0026627Y0272471D01*
X0026400Y0307638D02*
X0033225Y0307638D01*
X0033225Y0309237D02*
X0034375Y0309237D01*
X0034375Y0310835D02*
X0033225Y0310835D01*
X0033225Y0312434D02*
X0034375Y0312434D01*
X0033225Y0315350D02*
X0033225Y0320725D01*
X0029250Y0320725D01*
X0029250Y0316913D01*
X0029373Y0316455D01*
X0029610Y0316045D01*
X0029945Y0315710D01*
X0030355Y0315473D01*
X0030813Y0315350D01*
X0033225Y0315350D01*
X0033225Y0315631D02*
X0034375Y0315631D01*
X0034375Y0317229D02*
X0033225Y0317229D01*
X0033225Y0318828D02*
X0034375Y0318828D01*
X0034375Y0320426D02*
X0033225Y0320426D01*
X0033225Y0322025D02*
X0034375Y0322025D01*
X0034375Y0323623D02*
X0033225Y0323623D01*
X0033225Y0325222D02*
X0034375Y0325222D01*
X0034375Y0326820D02*
X0033225Y0326820D01*
X0029875Y0326820D02*
X0026400Y0326820D01*
X0026400Y0325222D02*
X0029250Y0325222D01*
X0029250Y0323623D02*
X0026400Y0323623D01*
X0026400Y0322025D02*
X0029250Y0322025D01*
X0029250Y0320426D02*
X0026400Y0320426D01*
X0026400Y0318828D02*
X0029250Y0318828D01*
X0029250Y0317229D02*
X0026400Y0317229D01*
X0026400Y0315631D02*
X0030082Y0315631D01*
X0053700Y0301244D02*
X0073045Y0301244D01*
X0071446Y0302842D02*
X0055650Y0302842D01*
X0055650Y0304441D02*
X0069848Y0304441D01*
X0068249Y0306039D02*
X0055650Y0306039D01*
X0066300Y0293800D02*
X0068800Y0291300D01*
X0074480Y0283660D02*
X0053700Y0283660D01*
X0053700Y0282062D02*
X0073800Y0282062D01*
X0073800Y0280463D02*
X0053700Y0280463D01*
X0053700Y0278865D02*
X0070332Y0278865D01*
X0073046Y0278865D02*
X0074555Y0278865D01*
X0074351Y0274069D02*
X0073544Y0274069D01*
X0073400Y0270872D02*
X0055650Y0270872D01*
X0055650Y0269274D02*
X0073656Y0269274D01*
X0083924Y0288456D02*
X0088533Y0288456D01*
X0088254Y0290054D02*
X0086366Y0290054D01*
X0084700Y0291500D02*
X0079300Y0291500D01*
X0079100Y0291300D01*
X0079100Y0296300D02*
X0083471Y0296300D01*
X0086300Y0299129D01*
X0086300Y0332580D01*
X0082892Y0334813D02*
X0079708Y0334813D01*
X0079708Y0336411D02*
X0082892Y0336411D01*
X0081300Y0338800D02*
X0081300Y0341300D01*
X0083800Y0343800D01*
X0085085Y0344404D02*
X0078489Y0344404D01*
X0079189Y0346002D02*
X0084100Y0346002D01*
X0083670Y0347601D02*
X0078888Y0347601D01*
X0078500Y0349199D02*
X0083411Y0349199D01*
X0082892Y0350798D02*
X0079708Y0350798D01*
X0079708Y0352396D02*
X0082892Y0352396D01*
X0082892Y0353995D02*
X0079708Y0353995D01*
X0079708Y0355593D02*
X0082892Y0355593D01*
X0082892Y0357192D02*
X0079708Y0357192D01*
X0081100Y0357500D02*
X0081100Y0359900D01*
X0082300Y0361100D01*
X0095500Y0361100D01*
X0096300Y0360300D01*
X0096300Y0355020D01*
X0096300Y0348800D01*
X0096096Y0349480D02*
X0094055Y0349480D01*
X0093597Y0349603D01*
X0093187Y0349840D01*
X0092852Y0350175D01*
X0092615Y0350586D01*
X0092492Y0351043D01*
X0092492Y0354817D01*
X0096096Y0354817D01*
X0096096Y0355224D01*
X0092492Y0355224D01*
X0092492Y0358700D01*
X0089708Y0358700D01*
X0089708Y0350700D01*
X0088953Y0349945D01*
X0089189Y0349375D01*
X0089189Y0348225D01*
X0088749Y0347164D01*
X0088648Y0347063D01*
X0091611Y0344100D01*
X0092900Y0342811D01*
X0092900Y0336907D01*
X0093712Y0337720D01*
X0098888Y0337720D01*
X0099100Y0337507D01*
X0099100Y0340389D01*
X0098578Y0340911D01*
X0098225Y0340911D01*
X0097164Y0341351D01*
X0096351Y0342164D01*
X0095911Y0343225D01*
X0095911Y0344375D01*
X0096351Y0345436D01*
X0097164Y0346249D01*
X0098225Y0346689D01*
X0099375Y0346689D01*
X0100436Y0346249D01*
X0101249Y0345436D01*
X0101689Y0344375D01*
X0101689Y0344022D01*
X0103500Y0342211D01*
X0103500Y0327403D01*
X0103721Y0327936D01*
X0104534Y0328749D01*
X0105595Y0329189D01*
X0106745Y0329189D01*
X0106859Y0329142D01*
X0106859Y0347970D01*
X0108081Y0349192D01*
X0108081Y0349375D01*
X0108520Y0350436D01*
X0109333Y0351249D01*
X0110395Y0351689D01*
X0111544Y0351689D01*
X0111659Y0351642D01*
X0111659Y0353678D01*
X0109919Y0355417D01*
X0109919Y0357066D01*
X0111553Y0358700D01*
X0100108Y0358700D01*
X0100108Y0355224D01*
X0096504Y0355224D01*
X0096504Y0354817D01*
X0100108Y0354817D01*
X0100108Y0351043D01*
X0099985Y0350586D01*
X0099748Y0350175D01*
X0099413Y0349840D01*
X0099003Y0349603D01*
X0098545Y0349480D01*
X0096504Y0349480D01*
X0096504Y0354816D01*
X0096096Y0354816D01*
X0096096Y0349480D01*
X0096096Y0350798D02*
X0096504Y0350798D01*
X0096504Y0352396D02*
X0096096Y0352396D01*
X0096096Y0353995D02*
X0096504Y0353995D01*
X0096300Y0355020D02*
X0097580Y0356300D01*
X0101300Y0356300D01*
X0100108Y0355593D02*
X0109919Y0355593D01*
X0110045Y0357192D02*
X0100108Y0357192D01*
X0100108Y0353995D02*
X0111341Y0353995D01*
X0111659Y0352396D02*
X0100108Y0352396D01*
X0100042Y0350798D02*
X0108882Y0350798D01*
X0108081Y0349199D02*
X0089189Y0349199D01*
X0088930Y0347601D02*
X0106859Y0347601D01*
X0106859Y0346002D02*
X0100683Y0346002D01*
X0101677Y0344404D02*
X0106859Y0344404D01*
X0106859Y0342805D02*
X0102906Y0342805D01*
X0103500Y0341207D02*
X0106859Y0341207D01*
X0106859Y0339608D02*
X0103500Y0339608D01*
X0103500Y0338010D02*
X0106859Y0338010D01*
X0106859Y0336411D02*
X0103500Y0336411D01*
X0103500Y0334813D02*
X0106859Y0334813D01*
X0106859Y0333214D02*
X0103500Y0333214D01*
X0103500Y0331616D02*
X0106859Y0331616D01*
X0106859Y0330017D02*
X0103500Y0330017D01*
X0103500Y0328419D02*
X0104203Y0328419D01*
X0106170Y0326300D02*
X0106170Y0292830D01*
X0105322Y0290054D02*
X0103800Y0290054D01*
X0103324Y0288456D02*
X0106459Y0288456D01*
X0108700Y0290300D02*
X0108700Y0291274D01*
X0109059Y0291633D01*
X0109059Y0347059D01*
X0111100Y0349100D01*
X0111100Y0348930D01*
X0110970Y0348800D01*
X0113859Y0356241D02*
X0113859Y0338741D01*
X0113859Y0323741D01*
X0113859Y0308741D01*
X0118741Y0308741D01*
X0123800Y0313800D01*
X0123624Y0308741D02*
X0128859Y0308741D01*
X0128859Y0293741D01*
X0133741Y0288859D02*
X0133741Y0283859D01*
X0133800Y0283800D01*
X0128859Y0308741D02*
X0128859Y0323741D01*
X0128800Y0323800D01*
X0123800Y0323800D01*
X0128859Y0323741D02*
X0128859Y0338741D01*
X0128859Y0356241D01*
X0133741Y0351359D02*
X0136300Y0348800D01*
X0138800Y0338800D02*
X0143393Y0338800D01*
X0143859Y0339265D01*
X0143859Y0338741D01*
X0143859Y0323741D01*
X0133800Y0328800D02*
X0133741Y0328859D01*
X0133741Y0333859D01*
X0143859Y0339265D02*
X0143859Y0356241D01*
X0148741Y0351359D02*
X0151300Y0348800D01*
X0158859Y0338741D02*
X0158859Y0323741D01*
X0156241Y0323741D01*
X0153800Y0321300D01*
X0153800Y0311300D01*
X0156300Y0308800D01*
X0158800Y0308800D01*
X0158859Y0308741D01*
X0158859Y0293741D01*
X0158859Y0278741D01*
X0166300Y0283800D02*
X0166300Y0286300D01*
X0163741Y0288859D01*
X0166300Y0298800D02*
X0166300Y0301300D01*
X0163741Y0303859D01*
X0178741Y0303859D02*
X0178741Y0298859D01*
X0178800Y0298800D01*
X0178741Y0288859D02*
X0178741Y0283859D01*
X0178800Y0283800D01*
X0121300Y0348800D02*
X0118741Y0351359D01*
X0118741Y0333859D02*
X0118800Y0333800D01*
X0118800Y0328800D01*
X0118741Y0318859D02*
X0118800Y0318800D01*
X0118800Y0313800D01*
X0113859Y0308741D02*
X0113859Y0293741D01*
X0111659Y0290054D02*
X0111589Y0290054D01*
X0111659Y0288456D02*
X0110941Y0288456D01*
X0102700Y0295100D02*
X0099700Y0295100D01*
X0098500Y0296300D01*
X0098500Y0291300D02*
X0093800Y0291300D01*
X0090454Y0289646D02*
X0093800Y0286300D01*
X0093955Y0278865D02*
X0092364Y0278865D01*
X0093200Y0277266D02*
X0091352Y0277266D01*
X0090454Y0289646D02*
X0090454Y0316300D01*
X0091300Y0317146D01*
X0091300Y0321300D01*
X0096300Y0326300D01*
X0096300Y0332580D01*
X0099100Y0338010D02*
X0092900Y0338010D01*
X0092900Y0339608D02*
X0099100Y0339608D01*
X0097511Y0341207D02*
X0092900Y0341207D01*
X0092900Y0342805D02*
X0096085Y0342805D01*
X0095923Y0344404D02*
X0091308Y0344404D01*
X0089709Y0346002D02*
X0096917Y0346002D01*
X0098800Y0343800D02*
X0101300Y0341300D01*
X0101300Y0326300D01*
X0097146Y0322146D01*
X0097146Y0316300D01*
X0102700Y0310700D02*
X0102700Y0305500D01*
X0098500Y0301300D01*
X0088254Y0291653D02*
X0087964Y0291653D01*
X0086728Y0293528D02*
X0086728Y0295472D01*
X0086728Y0293528D02*
X0084700Y0291500D01*
X0082860Y0298800D02*
X0082860Y0298800D01*
X0084100Y0304441D02*
X0076070Y0304441D01*
X0074472Y0306039D02*
X0084100Y0306039D01*
X0084100Y0307638D02*
X0072873Y0307638D01*
X0076100Y0301300D02*
X0079100Y0301300D01*
X0082011Y0317229D02*
X0082478Y0317229D01*
X0082478Y0318828D02*
X0082011Y0318828D01*
X0090700Y0327500D02*
X0091900Y0326300D01*
X0090700Y0327500D02*
X0090700Y0341900D01*
X0086300Y0346300D01*
X0086300Y0348800D01*
X0086300Y0355020D01*
X0089708Y0355593D02*
X0092492Y0355593D01*
X0092492Y0353995D02*
X0089708Y0353995D01*
X0089708Y0352396D02*
X0092492Y0352396D01*
X0092558Y0350798D02*
X0089708Y0350798D01*
X0089708Y0357192D02*
X0092492Y0357192D01*
X0076300Y0355020D02*
X0076300Y0346300D01*
X0054355Y0277266D02*
X0053700Y0277266D01*
D17*
X0064300Y0286700D03*
X0068800Y0291300D03*
X0071689Y0276300D03*
X0068800Y0272550D03*
X0086728Y0295472D03*
X0089500Y0284300D03*
X0089500Y0279500D03*
X0091300Y0269589D03*
X0093800Y0291300D03*
X0102700Y0295100D03*
X0106170Y0292830D03*
X0108700Y0290300D03*
X0108800Y0283800D03*
X0118800Y0283800D03*
X0118300Y0295100D03*
X0118800Y0298800D03*
X0118800Y0313800D03*
X0123800Y0313800D03*
X0123800Y0323800D03*
X0118800Y0328800D03*
X0121300Y0348800D03*
X0110970Y0348800D03*
X0101300Y0356300D03*
X0098800Y0343800D03*
X0091900Y0326300D03*
X0102700Y0310700D03*
X0106170Y0326300D03*
X0086300Y0348800D03*
X0076300Y0346300D03*
X0071300Y0356300D03*
X0058800Y0338800D03*
X0068800Y0316300D03*
X0041300Y0338800D03*
X0133800Y0328800D03*
X0138800Y0338800D03*
X0136300Y0348800D03*
X0148800Y0328800D03*
X0148800Y0313800D03*
X0148800Y0298800D03*
X0148800Y0283800D03*
X0133800Y0283800D03*
X0133800Y0298800D03*
X0133800Y0313800D03*
X0151300Y0348800D03*
X0163800Y0343800D03*
X0166300Y0348800D03*
X0166300Y0328800D03*
X0166300Y0323800D03*
X0161300Y0316300D03*
X0166300Y0313800D03*
X0166300Y0298800D03*
X0166300Y0283800D03*
X0178800Y0283800D03*
X0178800Y0298800D03*
X0178800Y0328800D03*
X0178800Y0343800D03*
M02*
