G75*
%MOIN*%
%OFA0B0*%
%FSLAX25Y25*%
%IPPOS*%
%LPD*%
%AMOC8*
5,1,8,0,0,1.08239X$1,22.5*
%
%ADD10C,0.00600*%
%ADD11C,0.00000*%
D10*
X0001300Y0021300D02*
X0001300Y0371300D01*
X0011300Y0361300D02*
X0011300Y0266300D01*
X0011303Y0266058D01*
X0011312Y0265817D01*
X0011326Y0265576D01*
X0011347Y0265335D01*
X0011373Y0265095D01*
X0011405Y0264855D01*
X0011443Y0264616D01*
X0011486Y0264379D01*
X0011536Y0264142D01*
X0011591Y0263907D01*
X0011651Y0263673D01*
X0011718Y0263441D01*
X0011789Y0263210D01*
X0011867Y0262981D01*
X0011950Y0262754D01*
X0012038Y0262529D01*
X0012132Y0262306D01*
X0012231Y0262086D01*
X0012336Y0261868D01*
X0012445Y0261653D01*
X0012560Y0261440D01*
X0012680Y0261230D01*
X0012805Y0261024D01*
X0012935Y0260820D01*
X0013070Y0260619D01*
X0013210Y0260422D01*
X0013354Y0260228D01*
X0013503Y0260038D01*
X0013657Y0259852D01*
X0013815Y0259669D01*
X0013977Y0259490D01*
X0014144Y0259315D01*
X0014315Y0259144D01*
X0014490Y0258977D01*
X0014669Y0258815D01*
X0014852Y0258657D01*
X0015038Y0258503D01*
X0015228Y0258354D01*
X0015422Y0258210D01*
X0015619Y0258070D01*
X0015820Y0257935D01*
X0016024Y0257805D01*
X0016230Y0257680D01*
X0016440Y0257560D01*
X0016653Y0257445D01*
X0016868Y0257336D01*
X0017086Y0257231D01*
X0017306Y0257132D01*
X0017529Y0257038D01*
X0017754Y0256950D01*
X0017981Y0256867D01*
X0018210Y0256789D01*
X0018441Y0256718D01*
X0018673Y0256651D01*
X0018907Y0256591D01*
X0019142Y0256536D01*
X0019379Y0256486D01*
X0019616Y0256443D01*
X0019855Y0256405D01*
X0020095Y0256373D01*
X0020335Y0256347D01*
X0020576Y0256326D01*
X0020817Y0256312D01*
X0021058Y0256303D01*
X0021300Y0256300D01*
X0041300Y0256300D01*
X0041300Y0263800D01*
X0031300Y0263800D01*
X0031058Y0263803D01*
X0030817Y0263812D01*
X0030576Y0263826D01*
X0030335Y0263847D01*
X0030095Y0263873D01*
X0029855Y0263905D01*
X0029616Y0263943D01*
X0029379Y0263986D01*
X0029142Y0264036D01*
X0028907Y0264091D01*
X0028673Y0264151D01*
X0028441Y0264218D01*
X0028210Y0264289D01*
X0027981Y0264367D01*
X0027754Y0264450D01*
X0027529Y0264538D01*
X0027306Y0264632D01*
X0027086Y0264731D01*
X0026868Y0264836D01*
X0026653Y0264945D01*
X0026440Y0265060D01*
X0026230Y0265180D01*
X0026024Y0265305D01*
X0025820Y0265435D01*
X0025619Y0265570D01*
X0025422Y0265710D01*
X0025228Y0265854D01*
X0025038Y0266003D01*
X0024852Y0266157D01*
X0024669Y0266315D01*
X0024490Y0266477D01*
X0024315Y0266644D01*
X0024144Y0266815D01*
X0023977Y0266990D01*
X0023815Y0267169D01*
X0023657Y0267352D01*
X0023503Y0267538D01*
X0023354Y0267728D01*
X0023210Y0267922D01*
X0023070Y0268119D01*
X0022935Y0268320D01*
X0022805Y0268524D01*
X0022680Y0268730D01*
X0022560Y0268940D01*
X0022445Y0269153D01*
X0022336Y0269368D01*
X0022231Y0269586D01*
X0022132Y0269806D01*
X0022038Y0270029D01*
X0021950Y0270254D01*
X0021867Y0270481D01*
X0021789Y0270710D01*
X0021718Y0270941D01*
X0021651Y0271173D01*
X0021591Y0271407D01*
X0021536Y0271642D01*
X0021486Y0271879D01*
X0021443Y0272116D01*
X0021405Y0272355D01*
X0021373Y0272595D01*
X0021347Y0272835D01*
X0021326Y0273076D01*
X0021312Y0273317D01*
X0021303Y0273558D01*
X0021300Y0273800D01*
X0021300Y0353800D01*
X0011300Y0361300D02*
X0011303Y0361542D01*
X0011312Y0361783D01*
X0011326Y0362024D01*
X0011347Y0362265D01*
X0011373Y0362505D01*
X0011405Y0362745D01*
X0011443Y0362984D01*
X0011486Y0363221D01*
X0011536Y0363458D01*
X0011591Y0363693D01*
X0011651Y0363927D01*
X0011718Y0364159D01*
X0011789Y0364390D01*
X0011867Y0364619D01*
X0011950Y0364846D01*
X0012038Y0365071D01*
X0012132Y0365294D01*
X0012231Y0365514D01*
X0012336Y0365732D01*
X0012445Y0365947D01*
X0012560Y0366160D01*
X0012680Y0366370D01*
X0012805Y0366576D01*
X0012935Y0366780D01*
X0013070Y0366981D01*
X0013210Y0367178D01*
X0013354Y0367372D01*
X0013503Y0367562D01*
X0013657Y0367748D01*
X0013815Y0367931D01*
X0013977Y0368110D01*
X0014144Y0368285D01*
X0014315Y0368456D01*
X0014490Y0368623D01*
X0014669Y0368785D01*
X0014852Y0368943D01*
X0015038Y0369097D01*
X0015228Y0369246D01*
X0015422Y0369390D01*
X0015619Y0369530D01*
X0015820Y0369665D01*
X0016024Y0369795D01*
X0016230Y0369920D01*
X0016440Y0370040D01*
X0016653Y0370155D01*
X0016868Y0370264D01*
X0017086Y0370369D01*
X0017306Y0370468D01*
X0017529Y0370562D01*
X0017754Y0370650D01*
X0017981Y0370733D01*
X0018210Y0370811D01*
X0018441Y0370882D01*
X0018673Y0370949D01*
X0018907Y0371009D01*
X0019142Y0371064D01*
X0019379Y0371114D01*
X0019616Y0371157D01*
X0019855Y0371195D01*
X0020095Y0371227D01*
X0020335Y0371253D01*
X0020576Y0371274D01*
X0020817Y0371288D01*
X0021058Y0371297D01*
X0021300Y0371300D01*
X0021300Y0391300D02*
X0020817Y0391294D01*
X0020334Y0391277D01*
X0019851Y0391247D01*
X0019370Y0391207D01*
X0018889Y0391154D01*
X0018410Y0391090D01*
X0017933Y0391015D01*
X0017457Y0390927D01*
X0016984Y0390829D01*
X0016514Y0390719D01*
X0016046Y0390598D01*
X0015581Y0390465D01*
X0015120Y0390321D01*
X0014662Y0390166D01*
X0014208Y0390000D01*
X0013758Y0389823D01*
X0013313Y0389636D01*
X0012872Y0389437D01*
X0012436Y0389229D01*
X0012006Y0389009D01*
X0011580Y0388779D01*
X0011161Y0388539D01*
X0010747Y0388289D01*
X0010340Y0388029D01*
X0009939Y0387760D01*
X0009544Y0387480D01*
X0009157Y0387192D01*
X0008776Y0386893D01*
X0008403Y0386586D01*
X0008038Y0386270D01*
X0007680Y0385945D01*
X0007330Y0385612D01*
X0006988Y0385270D01*
X0006655Y0384920D01*
X0006330Y0384562D01*
X0006014Y0384197D01*
X0005707Y0383824D01*
X0005408Y0383443D01*
X0005120Y0383056D01*
X0004840Y0382661D01*
X0004571Y0382260D01*
X0004311Y0381853D01*
X0004061Y0381439D01*
X0003821Y0381020D01*
X0003591Y0380594D01*
X0003371Y0380164D01*
X0003163Y0379728D01*
X0002964Y0379287D01*
X0002777Y0378842D01*
X0002600Y0378392D01*
X0002434Y0377938D01*
X0002279Y0377480D01*
X0002135Y0377019D01*
X0002002Y0376554D01*
X0001881Y0376086D01*
X0001771Y0375616D01*
X0001673Y0375143D01*
X0001585Y0374667D01*
X0001510Y0374190D01*
X0001446Y0373711D01*
X0001393Y0373230D01*
X0001353Y0372749D01*
X0001323Y0372266D01*
X0001306Y0371783D01*
X0001300Y0371300D01*
X0021300Y0371300D02*
X0041300Y0371300D01*
X0041300Y0363800D01*
X0031300Y0363800D01*
X0031058Y0363797D01*
X0030817Y0363788D01*
X0030576Y0363774D01*
X0030335Y0363753D01*
X0030095Y0363727D01*
X0029855Y0363695D01*
X0029616Y0363657D01*
X0029379Y0363614D01*
X0029142Y0363564D01*
X0028907Y0363509D01*
X0028673Y0363449D01*
X0028441Y0363382D01*
X0028210Y0363311D01*
X0027981Y0363233D01*
X0027754Y0363150D01*
X0027529Y0363062D01*
X0027306Y0362968D01*
X0027086Y0362869D01*
X0026868Y0362764D01*
X0026653Y0362655D01*
X0026440Y0362540D01*
X0026230Y0362420D01*
X0026024Y0362295D01*
X0025820Y0362165D01*
X0025619Y0362030D01*
X0025422Y0361890D01*
X0025228Y0361746D01*
X0025038Y0361597D01*
X0024852Y0361443D01*
X0024669Y0361285D01*
X0024490Y0361123D01*
X0024315Y0360956D01*
X0024144Y0360785D01*
X0023977Y0360610D01*
X0023815Y0360431D01*
X0023657Y0360248D01*
X0023503Y0360062D01*
X0023354Y0359872D01*
X0023210Y0359678D01*
X0023070Y0359481D01*
X0022935Y0359280D01*
X0022805Y0359076D01*
X0022680Y0358870D01*
X0022560Y0358660D01*
X0022445Y0358447D01*
X0022336Y0358232D01*
X0022231Y0358014D01*
X0022132Y0357794D01*
X0022038Y0357571D01*
X0021950Y0357346D01*
X0021867Y0357119D01*
X0021789Y0356890D01*
X0021718Y0356659D01*
X0021651Y0356427D01*
X0021591Y0356193D01*
X0021536Y0355958D01*
X0021486Y0355721D01*
X0021443Y0355484D01*
X0021405Y0355245D01*
X0021373Y0355005D01*
X0021347Y0354765D01*
X0021326Y0354524D01*
X0021312Y0354283D01*
X0021303Y0354042D01*
X0021300Y0353800D01*
X0021300Y0391300D02*
X0201300Y0391300D01*
X0201783Y0391294D01*
X0202266Y0391277D01*
X0202749Y0391247D01*
X0203230Y0391207D01*
X0203711Y0391154D01*
X0204190Y0391090D01*
X0204667Y0391015D01*
X0205143Y0390927D01*
X0205616Y0390829D01*
X0206086Y0390719D01*
X0206554Y0390598D01*
X0207019Y0390465D01*
X0207480Y0390321D01*
X0207938Y0390166D01*
X0208392Y0390000D01*
X0208842Y0389823D01*
X0209287Y0389636D01*
X0209728Y0389437D01*
X0210164Y0389229D01*
X0210594Y0389009D01*
X0211020Y0388779D01*
X0211439Y0388539D01*
X0211853Y0388289D01*
X0212260Y0388029D01*
X0212661Y0387760D01*
X0213056Y0387480D01*
X0213443Y0387192D01*
X0213824Y0386893D01*
X0214197Y0386586D01*
X0214562Y0386270D01*
X0214920Y0385945D01*
X0215270Y0385612D01*
X0215612Y0385270D01*
X0215945Y0384920D01*
X0216270Y0384562D01*
X0216586Y0384197D01*
X0216893Y0383824D01*
X0217192Y0383443D01*
X0217480Y0383056D01*
X0217760Y0382661D01*
X0218029Y0382260D01*
X0218289Y0381853D01*
X0218539Y0381439D01*
X0218779Y0381020D01*
X0219009Y0380594D01*
X0219229Y0380164D01*
X0219437Y0379728D01*
X0219636Y0379287D01*
X0219823Y0378842D01*
X0220000Y0378392D01*
X0220166Y0377938D01*
X0220321Y0377480D01*
X0220465Y0377019D01*
X0220598Y0376554D01*
X0220719Y0376086D01*
X0220829Y0375616D01*
X0220927Y0375143D01*
X0221015Y0374667D01*
X0221090Y0374190D01*
X0221154Y0373711D01*
X0221207Y0373230D01*
X0221247Y0372749D01*
X0221277Y0372266D01*
X0221294Y0371783D01*
X0221300Y0371300D01*
X0221300Y0021300D01*
X0221294Y0020817D01*
X0221277Y0020334D01*
X0221247Y0019851D01*
X0221207Y0019370D01*
X0221154Y0018889D01*
X0221090Y0018410D01*
X0221015Y0017933D01*
X0220927Y0017457D01*
X0220829Y0016984D01*
X0220719Y0016514D01*
X0220598Y0016046D01*
X0220465Y0015581D01*
X0220321Y0015120D01*
X0220166Y0014662D01*
X0220000Y0014208D01*
X0219823Y0013758D01*
X0219636Y0013313D01*
X0219437Y0012872D01*
X0219229Y0012436D01*
X0219009Y0012006D01*
X0218779Y0011580D01*
X0218539Y0011161D01*
X0218289Y0010747D01*
X0218029Y0010340D01*
X0217760Y0009939D01*
X0217480Y0009544D01*
X0217192Y0009157D01*
X0216893Y0008776D01*
X0216586Y0008403D01*
X0216270Y0008038D01*
X0215945Y0007680D01*
X0215612Y0007330D01*
X0215270Y0006988D01*
X0214920Y0006655D01*
X0214562Y0006330D01*
X0214197Y0006014D01*
X0213824Y0005707D01*
X0213443Y0005408D01*
X0213056Y0005120D01*
X0212661Y0004840D01*
X0212260Y0004571D01*
X0211853Y0004311D01*
X0211439Y0004061D01*
X0211020Y0003821D01*
X0210594Y0003591D01*
X0210164Y0003371D01*
X0209728Y0003163D01*
X0209287Y0002964D01*
X0208842Y0002777D01*
X0208392Y0002600D01*
X0207938Y0002434D01*
X0207480Y0002279D01*
X0207019Y0002135D01*
X0206554Y0002002D01*
X0206086Y0001881D01*
X0205616Y0001771D01*
X0205143Y0001673D01*
X0204667Y0001585D01*
X0204190Y0001510D01*
X0203711Y0001446D01*
X0203230Y0001393D01*
X0202749Y0001353D01*
X0202266Y0001323D01*
X0201783Y0001306D01*
X0201300Y0001300D01*
X0021300Y0001300D01*
X0020817Y0001306D01*
X0020334Y0001323D01*
X0019851Y0001353D01*
X0019370Y0001393D01*
X0018889Y0001446D01*
X0018410Y0001510D01*
X0017933Y0001585D01*
X0017457Y0001673D01*
X0016984Y0001771D01*
X0016514Y0001881D01*
X0016046Y0002002D01*
X0015581Y0002135D01*
X0015120Y0002279D01*
X0014662Y0002434D01*
X0014208Y0002600D01*
X0013758Y0002777D01*
X0013313Y0002964D01*
X0012872Y0003163D01*
X0012436Y0003371D01*
X0012006Y0003591D01*
X0011580Y0003821D01*
X0011161Y0004061D01*
X0010747Y0004311D01*
X0010340Y0004571D01*
X0009939Y0004840D01*
X0009544Y0005120D01*
X0009157Y0005408D01*
X0008776Y0005707D01*
X0008403Y0006014D01*
X0008038Y0006330D01*
X0007680Y0006655D01*
X0007330Y0006988D01*
X0006988Y0007330D01*
X0006655Y0007680D01*
X0006330Y0008038D01*
X0006014Y0008403D01*
X0005707Y0008776D01*
X0005408Y0009157D01*
X0005120Y0009544D01*
X0004840Y0009939D01*
X0004571Y0010340D01*
X0004311Y0010747D01*
X0004061Y0011161D01*
X0003821Y0011580D01*
X0003591Y0012006D01*
X0003371Y0012436D01*
X0003163Y0012872D01*
X0002964Y0013313D01*
X0002777Y0013758D01*
X0002600Y0014208D01*
X0002434Y0014662D01*
X0002279Y0015120D01*
X0002135Y0015581D01*
X0002002Y0016046D01*
X0001881Y0016514D01*
X0001771Y0016984D01*
X0001673Y0017457D01*
X0001585Y0017933D01*
X0001510Y0018410D01*
X0001446Y0018889D01*
X0001393Y0019370D01*
X0001353Y0019851D01*
X0001323Y0020334D01*
X0001306Y0020817D01*
X0001300Y0021300D01*
X0046300Y0256300D02*
X0046300Y0263800D01*
X0153800Y0263800D01*
X0153800Y0256300D01*
X0046300Y0256300D01*
X0046300Y0363800D02*
X0046300Y0371300D01*
X0153800Y0371300D01*
X0153800Y0363800D01*
X0046300Y0363800D01*
X0158800Y0363800D02*
X0158800Y0371300D01*
X0201300Y0371300D01*
X0201542Y0371297D01*
X0201783Y0371288D01*
X0202024Y0371274D01*
X0202265Y0371253D01*
X0202505Y0371227D01*
X0202745Y0371195D01*
X0202984Y0371157D01*
X0203221Y0371114D01*
X0203458Y0371064D01*
X0203693Y0371009D01*
X0203927Y0370949D01*
X0204159Y0370882D01*
X0204390Y0370811D01*
X0204619Y0370733D01*
X0204846Y0370650D01*
X0205071Y0370562D01*
X0205294Y0370468D01*
X0205514Y0370369D01*
X0205732Y0370264D01*
X0205947Y0370155D01*
X0206160Y0370040D01*
X0206370Y0369920D01*
X0206576Y0369795D01*
X0206780Y0369665D01*
X0206981Y0369530D01*
X0207178Y0369390D01*
X0207372Y0369246D01*
X0207562Y0369097D01*
X0207748Y0368943D01*
X0207931Y0368785D01*
X0208110Y0368623D01*
X0208285Y0368456D01*
X0208456Y0368285D01*
X0208623Y0368110D01*
X0208785Y0367931D01*
X0208943Y0367748D01*
X0209097Y0367562D01*
X0209246Y0367372D01*
X0209390Y0367178D01*
X0209530Y0366981D01*
X0209665Y0366780D01*
X0209795Y0366576D01*
X0209920Y0366370D01*
X0210040Y0366160D01*
X0210155Y0365947D01*
X0210264Y0365732D01*
X0210369Y0365514D01*
X0210468Y0365294D01*
X0210562Y0365071D01*
X0210650Y0364846D01*
X0210733Y0364619D01*
X0210811Y0364390D01*
X0210882Y0364159D01*
X0210949Y0363927D01*
X0211009Y0363693D01*
X0211064Y0363458D01*
X0211114Y0363221D01*
X0211157Y0362984D01*
X0211195Y0362745D01*
X0211227Y0362505D01*
X0211253Y0362265D01*
X0211274Y0362024D01*
X0211288Y0361783D01*
X0211297Y0361542D01*
X0211300Y0361300D01*
X0211300Y0266300D01*
X0211297Y0266058D01*
X0211288Y0265817D01*
X0211274Y0265576D01*
X0211253Y0265335D01*
X0211227Y0265095D01*
X0211195Y0264855D01*
X0211157Y0264616D01*
X0211114Y0264379D01*
X0211064Y0264142D01*
X0211009Y0263907D01*
X0210949Y0263673D01*
X0210882Y0263441D01*
X0210811Y0263210D01*
X0210733Y0262981D01*
X0210650Y0262754D01*
X0210562Y0262529D01*
X0210468Y0262306D01*
X0210369Y0262086D01*
X0210264Y0261868D01*
X0210155Y0261653D01*
X0210040Y0261440D01*
X0209920Y0261230D01*
X0209795Y0261024D01*
X0209665Y0260820D01*
X0209530Y0260619D01*
X0209390Y0260422D01*
X0209246Y0260228D01*
X0209097Y0260038D01*
X0208943Y0259852D01*
X0208785Y0259669D01*
X0208623Y0259490D01*
X0208456Y0259315D01*
X0208285Y0259144D01*
X0208110Y0258977D01*
X0207931Y0258815D01*
X0207748Y0258657D01*
X0207562Y0258503D01*
X0207372Y0258354D01*
X0207178Y0258210D01*
X0206981Y0258070D01*
X0206780Y0257935D01*
X0206576Y0257805D01*
X0206370Y0257680D01*
X0206160Y0257560D01*
X0205947Y0257445D01*
X0205732Y0257336D01*
X0205514Y0257231D01*
X0205294Y0257132D01*
X0205071Y0257038D01*
X0204846Y0256950D01*
X0204619Y0256867D01*
X0204390Y0256789D01*
X0204159Y0256718D01*
X0203927Y0256651D01*
X0203693Y0256591D01*
X0203458Y0256536D01*
X0203221Y0256486D01*
X0202984Y0256443D01*
X0202745Y0256405D01*
X0202505Y0256373D01*
X0202265Y0256347D01*
X0202024Y0256326D01*
X0201783Y0256312D01*
X0201542Y0256303D01*
X0201300Y0256300D01*
X0158800Y0256300D01*
X0158800Y0263800D01*
X0176300Y0263800D01*
X0176602Y0263804D01*
X0176904Y0263815D01*
X0177205Y0263833D01*
X0177506Y0263858D01*
X0177807Y0263891D01*
X0178106Y0263931D01*
X0178404Y0263978D01*
X0178702Y0264033D01*
X0178997Y0264094D01*
X0179291Y0264163D01*
X0179584Y0264239D01*
X0179874Y0264322D01*
X0180163Y0264412D01*
X0180449Y0264509D01*
X0180733Y0264612D01*
X0181014Y0264723D01*
X0181292Y0264840D01*
X0181568Y0264964D01*
X0181840Y0265095D01*
X0182109Y0265232D01*
X0182375Y0265375D01*
X0182637Y0265525D01*
X0182896Y0265682D01*
X0183150Y0265844D01*
X0183401Y0266013D01*
X0183647Y0266187D01*
X0183890Y0266368D01*
X0184127Y0266554D01*
X0184361Y0266746D01*
X0184589Y0266944D01*
X0184813Y0267147D01*
X0185031Y0267355D01*
X0185245Y0267569D01*
X0185453Y0267787D01*
X0185656Y0268011D01*
X0185854Y0268239D01*
X0186046Y0268473D01*
X0186232Y0268710D01*
X0186413Y0268953D01*
X0186587Y0269199D01*
X0186756Y0269450D01*
X0186918Y0269704D01*
X0187075Y0269963D01*
X0187225Y0270225D01*
X0187368Y0270491D01*
X0187505Y0270760D01*
X0187636Y0271032D01*
X0187760Y0271308D01*
X0187877Y0271586D01*
X0187988Y0271867D01*
X0188091Y0272151D01*
X0188188Y0272437D01*
X0188278Y0272726D01*
X0188361Y0273016D01*
X0188437Y0273309D01*
X0188506Y0273603D01*
X0188567Y0273898D01*
X0188622Y0274196D01*
X0188669Y0274494D01*
X0188709Y0274793D01*
X0188742Y0275094D01*
X0188767Y0275395D01*
X0188785Y0275696D01*
X0188796Y0275998D01*
X0188800Y0276300D01*
X0188800Y0297550D01*
X0188802Y0297731D01*
X0188809Y0297912D01*
X0188820Y0298093D01*
X0188835Y0298274D01*
X0188855Y0298454D01*
X0188879Y0298634D01*
X0188907Y0298813D01*
X0188940Y0298991D01*
X0188977Y0299168D01*
X0189018Y0299345D01*
X0189063Y0299520D01*
X0189113Y0299695D01*
X0189167Y0299868D01*
X0189225Y0300039D01*
X0189287Y0300210D01*
X0189354Y0300378D01*
X0189424Y0300545D01*
X0189498Y0300711D01*
X0189577Y0300874D01*
X0189659Y0301035D01*
X0189745Y0301195D01*
X0189835Y0301352D01*
X0189929Y0301507D01*
X0190026Y0301660D01*
X0190128Y0301810D01*
X0190232Y0301958D01*
X0190341Y0302104D01*
X0190452Y0302246D01*
X0190568Y0302386D01*
X0190686Y0302523D01*
X0190808Y0302658D01*
X0190933Y0302789D01*
X0191061Y0302917D01*
X0191192Y0303042D01*
X0191327Y0303164D01*
X0191464Y0303282D01*
X0191604Y0303398D01*
X0191746Y0303509D01*
X0191892Y0303618D01*
X0192040Y0303722D01*
X0192190Y0303824D01*
X0192343Y0303921D01*
X0192498Y0304015D01*
X0192655Y0304105D01*
X0192815Y0304191D01*
X0192976Y0304273D01*
X0193139Y0304352D01*
X0193305Y0304426D01*
X0193472Y0304496D01*
X0193640Y0304563D01*
X0193811Y0304625D01*
X0193982Y0304683D01*
X0194155Y0304737D01*
X0194330Y0304787D01*
X0194505Y0304832D01*
X0194682Y0304873D01*
X0194859Y0304910D01*
X0195037Y0304943D01*
X0195216Y0304971D01*
X0195396Y0304995D01*
X0195576Y0305015D01*
X0195757Y0305030D01*
X0195938Y0305041D01*
X0196119Y0305048D01*
X0196300Y0305050D01*
X0192347Y0313800D02*
X0192349Y0313925D01*
X0192355Y0314051D01*
X0192365Y0314176D01*
X0192379Y0314300D01*
X0192397Y0314425D01*
X0192418Y0314548D01*
X0192444Y0314671D01*
X0192474Y0314793D01*
X0192507Y0314914D01*
X0192544Y0315033D01*
X0192585Y0315152D01*
X0192630Y0315269D01*
X0192679Y0315385D01*
X0192731Y0315499D01*
X0192786Y0315611D01*
X0192846Y0315722D01*
X0192908Y0315831D01*
X0192975Y0315937D01*
X0193044Y0316042D01*
X0193117Y0316144D01*
X0193193Y0316244D01*
X0193272Y0316341D01*
X0193354Y0316436D01*
X0193439Y0316528D01*
X0193527Y0316617D01*
X0193618Y0316704D01*
X0193711Y0316787D01*
X0193807Y0316868D01*
X0193906Y0316946D01*
X0194007Y0317020D01*
X0194110Y0317091D01*
X0194216Y0317159D01*
X0194324Y0317223D01*
X0194433Y0317284D01*
X0194545Y0317342D01*
X0194658Y0317396D01*
X0194773Y0317446D01*
X0194889Y0317493D01*
X0195007Y0317536D01*
X0195126Y0317575D01*
X0195247Y0317610D01*
X0195368Y0317642D01*
X0195490Y0317669D01*
X0195614Y0317693D01*
X0195737Y0317713D01*
X0195862Y0317729D01*
X0195987Y0317741D01*
X0196112Y0317749D01*
X0196237Y0317753D01*
X0196363Y0317753D01*
X0196488Y0317749D01*
X0196613Y0317741D01*
X0196738Y0317729D01*
X0196863Y0317713D01*
X0196986Y0317693D01*
X0197110Y0317669D01*
X0197232Y0317642D01*
X0197353Y0317610D01*
X0197474Y0317575D01*
X0197593Y0317536D01*
X0197711Y0317493D01*
X0197827Y0317446D01*
X0197942Y0317396D01*
X0198055Y0317342D01*
X0198167Y0317284D01*
X0198277Y0317223D01*
X0198384Y0317159D01*
X0198490Y0317091D01*
X0198593Y0317020D01*
X0198694Y0316946D01*
X0198793Y0316868D01*
X0198889Y0316787D01*
X0198982Y0316704D01*
X0199073Y0316617D01*
X0199161Y0316528D01*
X0199246Y0316436D01*
X0199328Y0316341D01*
X0199407Y0316244D01*
X0199483Y0316144D01*
X0199556Y0316042D01*
X0199625Y0315937D01*
X0199692Y0315831D01*
X0199754Y0315722D01*
X0199814Y0315611D01*
X0199869Y0315499D01*
X0199921Y0315385D01*
X0199970Y0315269D01*
X0200015Y0315152D01*
X0200056Y0315033D01*
X0200093Y0314914D01*
X0200126Y0314793D01*
X0200156Y0314671D01*
X0200182Y0314548D01*
X0200203Y0314425D01*
X0200221Y0314300D01*
X0200235Y0314176D01*
X0200245Y0314051D01*
X0200251Y0313925D01*
X0200253Y0313800D01*
X0200251Y0313675D01*
X0200245Y0313549D01*
X0200235Y0313424D01*
X0200221Y0313300D01*
X0200203Y0313175D01*
X0200182Y0313052D01*
X0200156Y0312929D01*
X0200126Y0312807D01*
X0200093Y0312686D01*
X0200056Y0312567D01*
X0200015Y0312448D01*
X0199970Y0312331D01*
X0199921Y0312215D01*
X0199869Y0312101D01*
X0199814Y0311989D01*
X0199754Y0311878D01*
X0199692Y0311769D01*
X0199625Y0311663D01*
X0199556Y0311558D01*
X0199483Y0311456D01*
X0199407Y0311356D01*
X0199328Y0311259D01*
X0199246Y0311164D01*
X0199161Y0311072D01*
X0199073Y0310983D01*
X0198982Y0310896D01*
X0198889Y0310813D01*
X0198793Y0310732D01*
X0198694Y0310654D01*
X0198593Y0310580D01*
X0198490Y0310509D01*
X0198384Y0310441D01*
X0198276Y0310377D01*
X0198167Y0310316D01*
X0198055Y0310258D01*
X0197942Y0310204D01*
X0197827Y0310154D01*
X0197711Y0310107D01*
X0197593Y0310064D01*
X0197474Y0310025D01*
X0197353Y0309990D01*
X0197232Y0309958D01*
X0197110Y0309931D01*
X0196986Y0309907D01*
X0196863Y0309887D01*
X0196738Y0309871D01*
X0196613Y0309859D01*
X0196488Y0309851D01*
X0196363Y0309847D01*
X0196237Y0309847D01*
X0196112Y0309851D01*
X0195987Y0309859D01*
X0195862Y0309871D01*
X0195737Y0309887D01*
X0195614Y0309907D01*
X0195490Y0309931D01*
X0195368Y0309958D01*
X0195247Y0309990D01*
X0195126Y0310025D01*
X0195007Y0310064D01*
X0194889Y0310107D01*
X0194773Y0310154D01*
X0194658Y0310204D01*
X0194545Y0310258D01*
X0194433Y0310316D01*
X0194323Y0310377D01*
X0194216Y0310441D01*
X0194110Y0310509D01*
X0194007Y0310580D01*
X0193906Y0310654D01*
X0193807Y0310732D01*
X0193711Y0310813D01*
X0193618Y0310896D01*
X0193527Y0310983D01*
X0193439Y0311072D01*
X0193354Y0311164D01*
X0193272Y0311259D01*
X0193193Y0311356D01*
X0193117Y0311456D01*
X0193044Y0311558D01*
X0192975Y0311663D01*
X0192908Y0311769D01*
X0192846Y0311878D01*
X0192786Y0311989D01*
X0192731Y0312101D01*
X0192679Y0312215D01*
X0192630Y0312331D01*
X0192585Y0312448D01*
X0192544Y0312567D01*
X0192507Y0312686D01*
X0192474Y0312807D01*
X0192444Y0312929D01*
X0192418Y0313052D01*
X0192397Y0313175D01*
X0192379Y0313300D01*
X0192365Y0313424D01*
X0192355Y0313549D01*
X0192349Y0313675D01*
X0192347Y0313800D01*
X0196300Y0305050D02*
X0196513Y0305053D01*
X0196726Y0305060D01*
X0196939Y0305073D01*
X0197151Y0305091D01*
X0197363Y0305115D01*
X0197574Y0305143D01*
X0197784Y0305177D01*
X0197994Y0305216D01*
X0198203Y0305259D01*
X0198410Y0305308D01*
X0198616Y0305362D01*
X0198821Y0305421D01*
X0199024Y0305485D01*
X0199226Y0305554D01*
X0199426Y0305627D01*
X0199624Y0305706D01*
X0199820Y0305789D01*
X0200014Y0305877D01*
X0200206Y0305970D01*
X0200395Y0306068D01*
X0200582Y0306170D01*
X0200767Y0306276D01*
X0200949Y0306387D01*
X0201128Y0306503D01*
X0201304Y0306622D01*
X0201478Y0306746D01*
X0201648Y0306874D01*
X0201815Y0307007D01*
X0201979Y0307143D01*
X0202139Y0307283D01*
X0202296Y0307427D01*
X0202449Y0307575D01*
X0202599Y0307727D01*
X0202745Y0307882D01*
X0202887Y0308041D01*
X0203026Y0308203D01*
X0203160Y0308368D01*
X0203290Y0308537D01*
X0203416Y0308709D01*
X0203538Y0308884D01*
X0203656Y0309061D01*
X0203769Y0309242D01*
X0203878Y0309425D01*
X0203982Y0309611D01*
X0204082Y0309799D01*
X0204177Y0309990D01*
X0204267Y0310183D01*
X0204353Y0310378D01*
X0204434Y0310575D01*
X0204510Y0310774D01*
X0204581Y0310975D01*
X0204648Y0311177D01*
X0204709Y0311381D01*
X0204765Y0311587D01*
X0204817Y0311794D01*
X0204863Y0312002D01*
X0204904Y0312211D01*
X0204941Y0312421D01*
X0204972Y0312631D01*
X0204998Y0312843D01*
X0205018Y0313055D01*
X0205034Y0313268D01*
X0205044Y0313480D01*
X0205049Y0313693D01*
X0205049Y0313907D01*
X0205044Y0314120D01*
X0205034Y0314332D01*
X0205018Y0314545D01*
X0204998Y0314757D01*
X0204972Y0314969D01*
X0204941Y0315179D01*
X0204904Y0315389D01*
X0204863Y0315598D01*
X0204817Y0315806D01*
X0204765Y0316013D01*
X0204709Y0316219D01*
X0204648Y0316423D01*
X0204581Y0316625D01*
X0204510Y0316826D01*
X0204434Y0317025D01*
X0204353Y0317222D01*
X0204267Y0317417D01*
X0204177Y0317610D01*
X0204082Y0317801D01*
X0203982Y0317989D01*
X0203878Y0318175D01*
X0203769Y0318358D01*
X0203656Y0318539D01*
X0203538Y0318716D01*
X0203416Y0318891D01*
X0203290Y0319063D01*
X0203160Y0319232D01*
X0203026Y0319397D01*
X0202887Y0319559D01*
X0202745Y0319718D01*
X0202599Y0319873D01*
X0202449Y0320025D01*
X0202296Y0320173D01*
X0202139Y0320317D01*
X0201979Y0320457D01*
X0201815Y0320593D01*
X0201648Y0320726D01*
X0201478Y0320854D01*
X0201304Y0320978D01*
X0201128Y0321097D01*
X0200949Y0321213D01*
X0200767Y0321324D01*
X0200582Y0321430D01*
X0200395Y0321532D01*
X0200206Y0321630D01*
X0200014Y0321723D01*
X0199820Y0321811D01*
X0199624Y0321894D01*
X0199426Y0321973D01*
X0199226Y0322046D01*
X0199024Y0322115D01*
X0198821Y0322179D01*
X0198616Y0322238D01*
X0198410Y0322292D01*
X0198203Y0322341D01*
X0197994Y0322384D01*
X0197784Y0322423D01*
X0197574Y0322457D01*
X0197363Y0322485D01*
X0197151Y0322509D01*
X0196939Y0322527D01*
X0196726Y0322540D01*
X0196513Y0322547D01*
X0196300Y0322550D01*
X0196108Y0322556D01*
X0195917Y0322567D01*
X0195726Y0322582D01*
X0195535Y0322602D01*
X0195345Y0322627D01*
X0195155Y0322657D01*
X0194967Y0322691D01*
X0194779Y0322730D01*
X0194592Y0322773D01*
X0194407Y0322821D01*
X0194222Y0322874D01*
X0194039Y0322931D01*
X0193858Y0322993D01*
X0193678Y0323059D01*
X0193499Y0323129D01*
X0193323Y0323204D01*
X0193148Y0323283D01*
X0192975Y0323366D01*
X0192805Y0323453D01*
X0192636Y0323545D01*
X0192470Y0323641D01*
X0192307Y0323741D01*
X0192146Y0323844D01*
X0191987Y0323952D01*
X0191831Y0324064D01*
X0191678Y0324179D01*
X0191528Y0324298D01*
X0191380Y0324421D01*
X0191236Y0324547D01*
X0191095Y0324677D01*
X0190957Y0324810D01*
X0190823Y0324947D01*
X0190691Y0325087D01*
X0190564Y0325230D01*
X0190440Y0325376D01*
X0190319Y0325525D01*
X0190202Y0325677D01*
X0190089Y0325832D01*
X0189980Y0325989D01*
X0189875Y0326150D01*
X0189773Y0326312D01*
X0189676Y0326477D01*
X0189583Y0326645D01*
X0189494Y0326815D01*
X0189409Y0326987D01*
X0189328Y0327160D01*
X0189252Y0327336D01*
X0189180Y0327514D01*
X0189112Y0327693D01*
X0189049Y0327874D01*
X0188990Y0328057D01*
X0188935Y0328241D01*
X0188886Y0328426D01*
X0188840Y0328612D01*
X0188800Y0328800D01*
X0188800Y0353800D01*
X0188797Y0354042D01*
X0188788Y0354283D01*
X0188774Y0354524D01*
X0188753Y0354765D01*
X0188727Y0355005D01*
X0188695Y0355245D01*
X0188657Y0355484D01*
X0188614Y0355721D01*
X0188564Y0355958D01*
X0188509Y0356193D01*
X0188449Y0356427D01*
X0188382Y0356659D01*
X0188311Y0356890D01*
X0188233Y0357119D01*
X0188150Y0357346D01*
X0188062Y0357571D01*
X0187968Y0357794D01*
X0187869Y0358014D01*
X0187764Y0358232D01*
X0187655Y0358447D01*
X0187540Y0358660D01*
X0187420Y0358870D01*
X0187295Y0359076D01*
X0187165Y0359280D01*
X0187030Y0359481D01*
X0186890Y0359678D01*
X0186746Y0359872D01*
X0186597Y0360062D01*
X0186443Y0360248D01*
X0186285Y0360431D01*
X0186123Y0360610D01*
X0185956Y0360785D01*
X0185785Y0360956D01*
X0185610Y0361123D01*
X0185431Y0361285D01*
X0185248Y0361443D01*
X0185062Y0361597D01*
X0184872Y0361746D01*
X0184678Y0361890D01*
X0184481Y0362030D01*
X0184280Y0362165D01*
X0184076Y0362295D01*
X0183870Y0362420D01*
X0183660Y0362540D01*
X0183447Y0362655D01*
X0183232Y0362764D01*
X0183014Y0362869D01*
X0182794Y0362968D01*
X0182571Y0363062D01*
X0182346Y0363150D01*
X0182119Y0363233D01*
X0181890Y0363311D01*
X0181659Y0363382D01*
X0181427Y0363449D01*
X0181193Y0363509D01*
X0180958Y0363564D01*
X0180721Y0363614D01*
X0180484Y0363657D01*
X0180245Y0363695D01*
X0180005Y0363727D01*
X0179765Y0363753D01*
X0179524Y0363774D01*
X0179283Y0363788D01*
X0179042Y0363797D01*
X0178800Y0363800D01*
X0158800Y0363800D01*
D11*
X0158111Y0363800D02*
X0158113Y0363852D01*
X0158119Y0363904D01*
X0158129Y0363955D01*
X0158142Y0364005D01*
X0158160Y0364055D01*
X0158181Y0364102D01*
X0158205Y0364148D01*
X0158234Y0364192D01*
X0158265Y0364234D01*
X0158299Y0364273D01*
X0158336Y0364310D01*
X0158376Y0364343D01*
X0158419Y0364374D01*
X0158463Y0364401D01*
X0158509Y0364425D01*
X0158558Y0364445D01*
X0158607Y0364461D01*
X0158658Y0364474D01*
X0158709Y0364483D01*
X0158761Y0364488D01*
X0158813Y0364489D01*
X0158865Y0364486D01*
X0158917Y0364479D01*
X0158968Y0364468D01*
X0159018Y0364454D01*
X0159067Y0364435D01*
X0159114Y0364413D01*
X0159159Y0364388D01*
X0159203Y0364359D01*
X0159244Y0364327D01*
X0159283Y0364292D01*
X0159318Y0364254D01*
X0159351Y0364213D01*
X0159381Y0364171D01*
X0159407Y0364126D01*
X0159430Y0364079D01*
X0159449Y0364030D01*
X0159465Y0363980D01*
X0159477Y0363930D01*
X0159485Y0363878D01*
X0159489Y0363826D01*
X0159489Y0363774D01*
X0159485Y0363722D01*
X0159477Y0363670D01*
X0159465Y0363620D01*
X0159449Y0363570D01*
X0159430Y0363521D01*
X0159407Y0363474D01*
X0159381Y0363429D01*
X0159351Y0363387D01*
X0159318Y0363346D01*
X0159283Y0363308D01*
X0159244Y0363273D01*
X0159203Y0363241D01*
X0159159Y0363212D01*
X0159114Y0363187D01*
X0159067Y0363165D01*
X0159018Y0363146D01*
X0158968Y0363132D01*
X0158917Y0363121D01*
X0158865Y0363114D01*
X0158813Y0363111D01*
X0158761Y0363112D01*
X0158709Y0363117D01*
X0158658Y0363126D01*
X0158607Y0363139D01*
X0158558Y0363155D01*
X0158509Y0363175D01*
X0158463Y0363199D01*
X0158419Y0363226D01*
X0158376Y0363257D01*
X0158336Y0363290D01*
X0158299Y0363327D01*
X0158265Y0363366D01*
X0158234Y0363408D01*
X0158205Y0363452D01*
X0158181Y0363498D01*
X0158160Y0363545D01*
X0158142Y0363595D01*
X0158129Y0363645D01*
X0158119Y0363696D01*
X0158113Y0363748D01*
X0158111Y0363800D01*
X0155611Y0363800D02*
X0155613Y0363852D01*
X0155619Y0363904D01*
X0155629Y0363955D01*
X0155642Y0364005D01*
X0155660Y0364055D01*
X0155681Y0364102D01*
X0155705Y0364148D01*
X0155734Y0364192D01*
X0155765Y0364234D01*
X0155799Y0364273D01*
X0155836Y0364310D01*
X0155876Y0364343D01*
X0155919Y0364374D01*
X0155963Y0364401D01*
X0156009Y0364425D01*
X0156058Y0364445D01*
X0156107Y0364461D01*
X0156158Y0364474D01*
X0156209Y0364483D01*
X0156261Y0364488D01*
X0156313Y0364489D01*
X0156365Y0364486D01*
X0156417Y0364479D01*
X0156468Y0364468D01*
X0156518Y0364454D01*
X0156567Y0364435D01*
X0156614Y0364413D01*
X0156659Y0364388D01*
X0156703Y0364359D01*
X0156744Y0364327D01*
X0156783Y0364292D01*
X0156818Y0364254D01*
X0156851Y0364213D01*
X0156881Y0364171D01*
X0156907Y0364126D01*
X0156930Y0364079D01*
X0156949Y0364030D01*
X0156965Y0363980D01*
X0156977Y0363930D01*
X0156985Y0363878D01*
X0156989Y0363826D01*
X0156989Y0363774D01*
X0156985Y0363722D01*
X0156977Y0363670D01*
X0156965Y0363620D01*
X0156949Y0363570D01*
X0156930Y0363521D01*
X0156907Y0363474D01*
X0156881Y0363429D01*
X0156851Y0363387D01*
X0156818Y0363346D01*
X0156783Y0363308D01*
X0156744Y0363273D01*
X0156703Y0363241D01*
X0156659Y0363212D01*
X0156614Y0363187D01*
X0156567Y0363165D01*
X0156518Y0363146D01*
X0156468Y0363132D01*
X0156417Y0363121D01*
X0156365Y0363114D01*
X0156313Y0363111D01*
X0156261Y0363112D01*
X0156209Y0363117D01*
X0156158Y0363126D01*
X0156107Y0363139D01*
X0156058Y0363155D01*
X0156009Y0363175D01*
X0155963Y0363199D01*
X0155919Y0363226D01*
X0155876Y0363257D01*
X0155836Y0363290D01*
X0155799Y0363327D01*
X0155765Y0363366D01*
X0155734Y0363408D01*
X0155705Y0363452D01*
X0155681Y0363498D01*
X0155660Y0363545D01*
X0155642Y0363595D01*
X0155629Y0363645D01*
X0155619Y0363696D01*
X0155613Y0363748D01*
X0155611Y0363800D01*
X0153111Y0363800D02*
X0153113Y0363852D01*
X0153119Y0363904D01*
X0153129Y0363955D01*
X0153142Y0364005D01*
X0153160Y0364055D01*
X0153181Y0364102D01*
X0153205Y0364148D01*
X0153234Y0364192D01*
X0153265Y0364234D01*
X0153299Y0364273D01*
X0153336Y0364310D01*
X0153376Y0364343D01*
X0153419Y0364374D01*
X0153463Y0364401D01*
X0153509Y0364425D01*
X0153558Y0364445D01*
X0153607Y0364461D01*
X0153658Y0364474D01*
X0153709Y0364483D01*
X0153761Y0364488D01*
X0153813Y0364489D01*
X0153865Y0364486D01*
X0153917Y0364479D01*
X0153968Y0364468D01*
X0154018Y0364454D01*
X0154067Y0364435D01*
X0154114Y0364413D01*
X0154159Y0364388D01*
X0154203Y0364359D01*
X0154244Y0364327D01*
X0154283Y0364292D01*
X0154318Y0364254D01*
X0154351Y0364213D01*
X0154381Y0364171D01*
X0154407Y0364126D01*
X0154430Y0364079D01*
X0154449Y0364030D01*
X0154465Y0363980D01*
X0154477Y0363930D01*
X0154485Y0363878D01*
X0154489Y0363826D01*
X0154489Y0363774D01*
X0154485Y0363722D01*
X0154477Y0363670D01*
X0154465Y0363620D01*
X0154449Y0363570D01*
X0154430Y0363521D01*
X0154407Y0363474D01*
X0154381Y0363429D01*
X0154351Y0363387D01*
X0154318Y0363346D01*
X0154283Y0363308D01*
X0154244Y0363273D01*
X0154203Y0363241D01*
X0154159Y0363212D01*
X0154114Y0363187D01*
X0154067Y0363165D01*
X0154018Y0363146D01*
X0153968Y0363132D01*
X0153917Y0363121D01*
X0153865Y0363114D01*
X0153813Y0363111D01*
X0153761Y0363112D01*
X0153709Y0363117D01*
X0153658Y0363126D01*
X0153607Y0363139D01*
X0153558Y0363155D01*
X0153509Y0363175D01*
X0153463Y0363199D01*
X0153419Y0363226D01*
X0153376Y0363257D01*
X0153336Y0363290D01*
X0153299Y0363327D01*
X0153265Y0363366D01*
X0153234Y0363408D01*
X0153205Y0363452D01*
X0153181Y0363498D01*
X0153160Y0363545D01*
X0153142Y0363595D01*
X0153129Y0363645D01*
X0153119Y0363696D01*
X0153113Y0363748D01*
X0153111Y0363800D01*
X0153111Y0371300D02*
X0153113Y0371352D01*
X0153119Y0371404D01*
X0153129Y0371455D01*
X0153142Y0371505D01*
X0153160Y0371555D01*
X0153181Y0371602D01*
X0153205Y0371648D01*
X0153234Y0371692D01*
X0153265Y0371734D01*
X0153299Y0371773D01*
X0153336Y0371810D01*
X0153376Y0371843D01*
X0153419Y0371874D01*
X0153463Y0371901D01*
X0153509Y0371925D01*
X0153558Y0371945D01*
X0153607Y0371961D01*
X0153658Y0371974D01*
X0153709Y0371983D01*
X0153761Y0371988D01*
X0153813Y0371989D01*
X0153865Y0371986D01*
X0153917Y0371979D01*
X0153968Y0371968D01*
X0154018Y0371954D01*
X0154067Y0371935D01*
X0154114Y0371913D01*
X0154159Y0371888D01*
X0154203Y0371859D01*
X0154244Y0371827D01*
X0154283Y0371792D01*
X0154318Y0371754D01*
X0154351Y0371713D01*
X0154381Y0371671D01*
X0154407Y0371626D01*
X0154430Y0371579D01*
X0154449Y0371530D01*
X0154465Y0371480D01*
X0154477Y0371430D01*
X0154485Y0371378D01*
X0154489Y0371326D01*
X0154489Y0371274D01*
X0154485Y0371222D01*
X0154477Y0371170D01*
X0154465Y0371120D01*
X0154449Y0371070D01*
X0154430Y0371021D01*
X0154407Y0370974D01*
X0154381Y0370929D01*
X0154351Y0370887D01*
X0154318Y0370846D01*
X0154283Y0370808D01*
X0154244Y0370773D01*
X0154203Y0370741D01*
X0154159Y0370712D01*
X0154114Y0370687D01*
X0154067Y0370665D01*
X0154018Y0370646D01*
X0153968Y0370632D01*
X0153917Y0370621D01*
X0153865Y0370614D01*
X0153813Y0370611D01*
X0153761Y0370612D01*
X0153709Y0370617D01*
X0153658Y0370626D01*
X0153607Y0370639D01*
X0153558Y0370655D01*
X0153509Y0370675D01*
X0153463Y0370699D01*
X0153419Y0370726D01*
X0153376Y0370757D01*
X0153336Y0370790D01*
X0153299Y0370827D01*
X0153265Y0370866D01*
X0153234Y0370908D01*
X0153205Y0370952D01*
X0153181Y0370998D01*
X0153160Y0371045D01*
X0153142Y0371095D01*
X0153129Y0371145D01*
X0153119Y0371196D01*
X0153113Y0371248D01*
X0153111Y0371300D01*
X0155611Y0371300D02*
X0155613Y0371352D01*
X0155619Y0371404D01*
X0155629Y0371455D01*
X0155642Y0371505D01*
X0155660Y0371555D01*
X0155681Y0371602D01*
X0155705Y0371648D01*
X0155734Y0371692D01*
X0155765Y0371734D01*
X0155799Y0371773D01*
X0155836Y0371810D01*
X0155876Y0371843D01*
X0155919Y0371874D01*
X0155963Y0371901D01*
X0156009Y0371925D01*
X0156058Y0371945D01*
X0156107Y0371961D01*
X0156158Y0371974D01*
X0156209Y0371983D01*
X0156261Y0371988D01*
X0156313Y0371989D01*
X0156365Y0371986D01*
X0156417Y0371979D01*
X0156468Y0371968D01*
X0156518Y0371954D01*
X0156567Y0371935D01*
X0156614Y0371913D01*
X0156659Y0371888D01*
X0156703Y0371859D01*
X0156744Y0371827D01*
X0156783Y0371792D01*
X0156818Y0371754D01*
X0156851Y0371713D01*
X0156881Y0371671D01*
X0156907Y0371626D01*
X0156930Y0371579D01*
X0156949Y0371530D01*
X0156965Y0371480D01*
X0156977Y0371430D01*
X0156985Y0371378D01*
X0156989Y0371326D01*
X0156989Y0371274D01*
X0156985Y0371222D01*
X0156977Y0371170D01*
X0156965Y0371120D01*
X0156949Y0371070D01*
X0156930Y0371021D01*
X0156907Y0370974D01*
X0156881Y0370929D01*
X0156851Y0370887D01*
X0156818Y0370846D01*
X0156783Y0370808D01*
X0156744Y0370773D01*
X0156703Y0370741D01*
X0156659Y0370712D01*
X0156614Y0370687D01*
X0156567Y0370665D01*
X0156518Y0370646D01*
X0156468Y0370632D01*
X0156417Y0370621D01*
X0156365Y0370614D01*
X0156313Y0370611D01*
X0156261Y0370612D01*
X0156209Y0370617D01*
X0156158Y0370626D01*
X0156107Y0370639D01*
X0156058Y0370655D01*
X0156009Y0370675D01*
X0155963Y0370699D01*
X0155919Y0370726D01*
X0155876Y0370757D01*
X0155836Y0370790D01*
X0155799Y0370827D01*
X0155765Y0370866D01*
X0155734Y0370908D01*
X0155705Y0370952D01*
X0155681Y0370998D01*
X0155660Y0371045D01*
X0155642Y0371095D01*
X0155629Y0371145D01*
X0155619Y0371196D01*
X0155613Y0371248D01*
X0155611Y0371300D01*
X0158111Y0371300D02*
X0158113Y0371352D01*
X0158119Y0371404D01*
X0158129Y0371455D01*
X0158142Y0371505D01*
X0158160Y0371555D01*
X0158181Y0371602D01*
X0158205Y0371648D01*
X0158234Y0371692D01*
X0158265Y0371734D01*
X0158299Y0371773D01*
X0158336Y0371810D01*
X0158376Y0371843D01*
X0158419Y0371874D01*
X0158463Y0371901D01*
X0158509Y0371925D01*
X0158558Y0371945D01*
X0158607Y0371961D01*
X0158658Y0371974D01*
X0158709Y0371983D01*
X0158761Y0371988D01*
X0158813Y0371989D01*
X0158865Y0371986D01*
X0158917Y0371979D01*
X0158968Y0371968D01*
X0159018Y0371954D01*
X0159067Y0371935D01*
X0159114Y0371913D01*
X0159159Y0371888D01*
X0159203Y0371859D01*
X0159244Y0371827D01*
X0159283Y0371792D01*
X0159318Y0371754D01*
X0159351Y0371713D01*
X0159381Y0371671D01*
X0159407Y0371626D01*
X0159430Y0371579D01*
X0159449Y0371530D01*
X0159465Y0371480D01*
X0159477Y0371430D01*
X0159485Y0371378D01*
X0159489Y0371326D01*
X0159489Y0371274D01*
X0159485Y0371222D01*
X0159477Y0371170D01*
X0159465Y0371120D01*
X0159449Y0371070D01*
X0159430Y0371021D01*
X0159407Y0370974D01*
X0159381Y0370929D01*
X0159351Y0370887D01*
X0159318Y0370846D01*
X0159283Y0370808D01*
X0159244Y0370773D01*
X0159203Y0370741D01*
X0159159Y0370712D01*
X0159114Y0370687D01*
X0159067Y0370665D01*
X0159018Y0370646D01*
X0158968Y0370632D01*
X0158917Y0370621D01*
X0158865Y0370614D01*
X0158813Y0370611D01*
X0158761Y0370612D01*
X0158709Y0370617D01*
X0158658Y0370626D01*
X0158607Y0370639D01*
X0158558Y0370655D01*
X0158509Y0370675D01*
X0158463Y0370699D01*
X0158419Y0370726D01*
X0158376Y0370757D01*
X0158336Y0370790D01*
X0158299Y0370827D01*
X0158265Y0370866D01*
X0158234Y0370908D01*
X0158205Y0370952D01*
X0158181Y0370998D01*
X0158160Y0371045D01*
X0158142Y0371095D01*
X0158129Y0371145D01*
X0158119Y0371196D01*
X0158113Y0371248D01*
X0158111Y0371300D01*
X0158111Y0263800D02*
X0158113Y0263852D01*
X0158119Y0263904D01*
X0158129Y0263955D01*
X0158142Y0264005D01*
X0158160Y0264055D01*
X0158181Y0264102D01*
X0158205Y0264148D01*
X0158234Y0264192D01*
X0158265Y0264234D01*
X0158299Y0264273D01*
X0158336Y0264310D01*
X0158376Y0264343D01*
X0158419Y0264374D01*
X0158463Y0264401D01*
X0158509Y0264425D01*
X0158558Y0264445D01*
X0158607Y0264461D01*
X0158658Y0264474D01*
X0158709Y0264483D01*
X0158761Y0264488D01*
X0158813Y0264489D01*
X0158865Y0264486D01*
X0158917Y0264479D01*
X0158968Y0264468D01*
X0159018Y0264454D01*
X0159067Y0264435D01*
X0159114Y0264413D01*
X0159159Y0264388D01*
X0159203Y0264359D01*
X0159244Y0264327D01*
X0159283Y0264292D01*
X0159318Y0264254D01*
X0159351Y0264213D01*
X0159381Y0264171D01*
X0159407Y0264126D01*
X0159430Y0264079D01*
X0159449Y0264030D01*
X0159465Y0263980D01*
X0159477Y0263930D01*
X0159485Y0263878D01*
X0159489Y0263826D01*
X0159489Y0263774D01*
X0159485Y0263722D01*
X0159477Y0263670D01*
X0159465Y0263620D01*
X0159449Y0263570D01*
X0159430Y0263521D01*
X0159407Y0263474D01*
X0159381Y0263429D01*
X0159351Y0263387D01*
X0159318Y0263346D01*
X0159283Y0263308D01*
X0159244Y0263273D01*
X0159203Y0263241D01*
X0159159Y0263212D01*
X0159114Y0263187D01*
X0159067Y0263165D01*
X0159018Y0263146D01*
X0158968Y0263132D01*
X0158917Y0263121D01*
X0158865Y0263114D01*
X0158813Y0263111D01*
X0158761Y0263112D01*
X0158709Y0263117D01*
X0158658Y0263126D01*
X0158607Y0263139D01*
X0158558Y0263155D01*
X0158509Y0263175D01*
X0158463Y0263199D01*
X0158419Y0263226D01*
X0158376Y0263257D01*
X0158336Y0263290D01*
X0158299Y0263327D01*
X0158265Y0263366D01*
X0158234Y0263408D01*
X0158205Y0263452D01*
X0158181Y0263498D01*
X0158160Y0263545D01*
X0158142Y0263595D01*
X0158129Y0263645D01*
X0158119Y0263696D01*
X0158113Y0263748D01*
X0158111Y0263800D01*
X0155611Y0263800D02*
X0155613Y0263852D01*
X0155619Y0263904D01*
X0155629Y0263955D01*
X0155642Y0264005D01*
X0155660Y0264055D01*
X0155681Y0264102D01*
X0155705Y0264148D01*
X0155734Y0264192D01*
X0155765Y0264234D01*
X0155799Y0264273D01*
X0155836Y0264310D01*
X0155876Y0264343D01*
X0155919Y0264374D01*
X0155963Y0264401D01*
X0156009Y0264425D01*
X0156058Y0264445D01*
X0156107Y0264461D01*
X0156158Y0264474D01*
X0156209Y0264483D01*
X0156261Y0264488D01*
X0156313Y0264489D01*
X0156365Y0264486D01*
X0156417Y0264479D01*
X0156468Y0264468D01*
X0156518Y0264454D01*
X0156567Y0264435D01*
X0156614Y0264413D01*
X0156659Y0264388D01*
X0156703Y0264359D01*
X0156744Y0264327D01*
X0156783Y0264292D01*
X0156818Y0264254D01*
X0156851Y0264213D01*
X0156881Y0264171D01*
X0156907Y0264126D01*
X0156930Y0264079D01*
X0156949Y0264030D01*
X0156965Y0263980D01*
X0156977Y0263930D01*
X0156985Y0263878D01*
X0156989Y0263826D01*
X0156989Y0263774D01*
X0156985Y0263722D01*
X0156977Y0263670D01*
X0156965Y0263620D01*
X0156949Y0263570D01*
X0156930Y0263521D01*
X0156907Y0263474D01*
X0156881Y0263429D01*
X0156851Y0263387D01*
X0156818Y0263346D01*
X0156783Y0263308D01*
X0156744Y0263273D01*
X0156703Y0263241D01*
X0156659Y0263212D01*
X0156614Y0263187D01*
X0156567Y0263165D01*
X0156518Y0263146D01*
X0156468Y0263132D01*
X0156417Y0263121D01*
X0156365Y0263114D01*
X0156313Y0263111D01*
X0156261Y0263112D01*
X0156209Y0263117D01*
X0156158Y0263126D01*
X0156107Y0263139D01*
X0156058Y0263155D01*
X0156009Y0263175D01*
X0155963Y0263199D01*
X0155919Y0263226D01*
X0155876Y0263257D01*
X0155836Y0263290D01*
X0155799Y0263327D01*
X0155765Y0263366D01*
X0155734Y0263408D01*
X0155705Y0263452D01*
X0155681Y0263498D01*
X0155660Y0263545D01*
X0155642Y0263595D01*
X0155629Y0263645D01*
X0155619Y0263696D01*
X0155613Y0263748D01*
X0155611Y0263800D01*
X0153111Y0263800D02*
X0153113Y0263852D01*
X0153119Y0263904D01*
X0153129Y0263955D01*
X0153142Y0264005D01*
X0153160Y0264055D01*
X0153181Y0264102D01*
X0153205Y0264148D01*
X0153234Y0264192D01*
X0153265Y0264234D01*
X0153299Y0264273D01*
X0153336Y0264310D01*
X0153376Y0264343D01*
X0153419Y0264374D01*
X0153463Y0264401D01*
X0153509Y0264425D01*
X0153558Y0264445D01*
X0153607Y0264461D01*
X0153658Y0264474D01*
X0153709Y0264483D01*
X0153761Y0264488D01*
X0153813Y0264489D01*
X0153865Y0264486D01*
X0153917Y0264479D01*
X0153968Y0264468D01*
X0154018Y0264454D01*
X0154067Y0264435D01*
X0154114Y0264413D01*
X0154159Y0264388D01*
X0154203Y0264359D01*
X0154244Y0264327D01*
X0154283Y0264292D01*
X0154318Y0264254D01*
X0154351Y0264213D01*
X0154381Y0264171D01*
X0154407Y0264126D01*
X0154430Y0264079D01*
X0154449Y0264030D01*
X0154465Y0263980D01*
X0154477Y0263930D01*
X0154485Y0263878D01*
X0154489Y0263826D01*
X0154489Y0263774D01*
X0154485Y0263722D01*
X0154477Y0263670D01*
X0154465Y0263620D01*
X0154449Y0263570D01*
X0154430Y0263521D01*
X0154407Y0263474D01*
X0154381Y0263429D01*
X0154351Y0263387D01*
X0154318Y0263346D01*
X0154283Y0263308D01*
X0154244Y0263273D01*
X0154203Y0263241D01*
X0154159Y0263212D01*
X0154114Y0263187D01*
X0154067Y0263165D01*
X0154018Y0263146D01*
X0153968Y0263132D01*
X0153917Y0263121D01*
X0153865Y0263114D01*
X0153813Y0263111D01*
X0153761Y0263112D01*
X0153709Y0263117D01*
X0153658Y0263126D01*
X0153607Y0263139D01*
X0153558Y0263155D01*
X0153509Y0263175D01*
X0153463Y0263199D01*
X0153419Y0263226D01*
X0153376Y0263257D01*
X0153336Y0263290D01*
X0153299Y0263327D01*
X0153265Y0263366D01*
X0153234Y0263408D01*
X0153205Y0263452D01*
X0153181Y0263498D01*
X0153160Y0263545D01*
X0153142Y0263595D01*
X0153129Y0263645D01*
X0153119Y0263696D01*
X0153113Y0263748D01*
X0153111Y0263800D01*
X0153111Y0256300D02*
X0153113Y0256352D01*
X0153119Y0256404D01*
X0153129Y0256455D01*
X0153142Y0256505D01*
X0153160Y0256555D01*
X0153181Y0256602D01*
X0153205Y0256648D01*
X0153234Y0256692D01*
X0153265Y0256734D01*
X0153299Y0256773D01*
X0153336Y0256810D01*
X0153376Y0256843D01*
X0153419Y0256874D01*
X0153463Y0256901D01*
X0153509Y0256925D01*
X0153558Y0256945D01*
X0153607Y0256961D01*
X0153658Y0256974D01*
X0153709Y0256983D01*
X0153761Y0256988D01*
X0153813Y0256989D01*
X0153865Y0256986D01*
X0153917Y0256979D01*
X0153968Y0256968D01*
X0154018Y0256954D01*
X0154067Y0256935D01*
X0154114Y0256913D01*
X0154159Y0256888D01*
X0154203Y0256859D01*
X0154244Y0256827D01*
X0154283Y0256792D01*
X0154318Y0256754D01*
X0154351Y0256713D01*
X0154381Y0256671D01*
X0154407Y0256626D01*
X0154430Y0256579D01*
X0154449Y0256530D01*
X0154465Y0256480D01*
X0154477Y0256430D01*
X0154485Y0256378D01*
X0154489Y0256326D01*
X0154489Y0256274D01*
X0154485Y0256222D01*
X0154477Y0256170D01*
X0154465Y0256120D01*
X0154449Y0256070D01*
X0154430Y0256021D01*
X0154407Y0255974D01*
X0154381Y0255929D01*
X0154351Y0255887D01*
X0154318Y0255846D01*
X0154283Y0255808D01*
X0154244Y0255773D01*
X0154203Y0255741D01*
X0154159Y0255712D01*
X0154114Y0255687D01*
X0154067Y0255665D01*
X0154018Y0255646D01*
X0153968Y0255632D01*
X0153917Y0255621D01*
X0153865Y0255614D01*
X0153813Y0255611D01*
X0153761Y0255612D01*
X0153709Y0255617D01*
X0153658Y0255626D01*
X0153607Y0255639D01*
X0153558Y0255655D01*
X0153509Y0255675D01*
X0153463Y0255699D01*
X0153419Y0255726D01*
X0153376Y0255757D01*
X0153336Y0255790D01*
X0153299Y0255827D01*
X0153265Y0255866D01*
X0153234Y0255908D01*
X0153205Y0255952D01*
X0153181Y0255998D01*
X0153160Y0256045D01*
X0153142Y0256095D01*
X0153129Y0256145D01*
X0153119Y0256196D01*
X0153113Y0256248D01*
X0153111Y0256300D01*
X0155611Y0256300D02*
X0155613Y0256352D01*
X0155619Y0256404D01*
X0155629Y0256455D01*
X0155642Y0256505D01*
X0155660Y0256555D01*
X0155681Y0256602D01*
X0155705Y0256648D01*
X0155734Y0256692D01*
X0155765Y0256734D01*
X0155799Y0256773D01*
X0155836Y0256810D01*
X0155876Y0256843D01*
X0155919Y0256874D01*
X0155963Y0256901D01*
X0156009Y0256925D01*
X0156058Y0256945D01*
X0156107Y0256961D01*
X0156158Y0256974D01*
X0156209Y0256983D01*
X0156261Y0256988D01*
X0156313Y0256989D01*
X0156365Y0256986D01*
X0156417Y0256979D01*
X0156468Y0256968D01*
X0156518Y0256954D01*
X0156567Y0256935D01*
X0156614Y0256913D01*
X0156659Y0256888D01*
X0156703Y0256859D01*
X0156744Y0256827D01*
X0156783Y0256792D01*
X0156818Y0256754D01*
X0156851Y0256713D01*
X0156881Y0256671D01*
X0156907Y0256626D01*
X0156930Y0256579D01*
X0156949Y0256530D01*
X0156965Y0256480D01*
X0156977Y0256430D01*
X0156985Y0256378D01*
X0156989Y0256326D01*
X0156989Y0256274D01*
X0156985Y0256222D01*
X0156977Y0256170D01*
X0156965Y0256120D01*
X0156949Y0256070D01*
X0156930Y0256021D01*
X0156907Y0255974D01*
X0156881Y0255929D01*
X0156851Y0255887D01*
X0156818Y0255846D01*
X0156783Y0255808D01*
X0156744Y0255773D01*
X0156703Y0255741D01*
X0156659Y0255712D01*
X0156614Y0255687D01*
X0156567Y0255665D01*
X0156518Y0255646D01*
X0156468Y0255632D01*
X0156417Y0255621D01*
X0156365Y0255614D01*
X0156313Y0255611D01*
X0156261Y0255612D01*
X0156209Y0255617D01*
X0156158Y0255626D01*
X0156107Y0255639D01*
X0156058Y0255655D01*
X0156009Y0255675D01*
X0155963Y0255699D01*
X0155919Y0255726D01*
X0155876Y0255757D01*
X0155836Y0255790D01*
X0155799Y0255827D01*
X0155765Y0255866D01*
X0155734Y0255908D01*
X0155705Y0255952D01*
X0155681Y0255998D01*
X0155660Y0256045D01*
X0155642Y0256095D01*
X0155629Y0256145D01*
X0155619Y0256196D01*
X0155613Y0256248D01*
X0155611Y0256300D01*
X0158111Y0256300D02*
X0158113Y0256352D01*
X0158119Y0256404D01*
X0158129Y0256455D01*
X0158142Y0256505D01*
X0158160Y0256555D01*
X0158181Y0256602D01*
X0158205Y0256648D01*
X0158234Y0256692D01*
X0158265Y0256734D01*
X0158299Y0256773D01*
X0158336Y0256810D01*
X0158376Y0256843D01*
X0158419Y0256874D01*
X0158463Y0256901D01*
X0158509Y0256925D01*
X0158558Y0256945D01*
X0158607Y0256961D01*
X0158658Y0256974D01*
X0158709Y0256983D01*
X0158761Y0256988D01*
X0158813Y0256989D01*
X0158865Y0256986D01*
X0158917Y0256979D01*
X0158968Y0256968D01*
X0159018Y0256954D01*
X0159067Y0256935D01*
X0159114Y0256913D01*
X0159159Y0256888D01*
X0159203Y0256859D01*
X0159244Y0256827D01*
X0159283Y0256792D01*
X0159318Y0256754D01*
X0159351Y0256713D01*
X0159381Y0256671D01*
X0159407Y0256626D01*
X0159430Y0256579D01*
X0159449Y0256530D01*
X0159465Y0256480D01*
X0159477Y0256430D01*
X0159485Y0256378D01*
X0159489Y0256326D01*
X0159489Y0256274D01*
X0159485Y0256222D01*
X0159477Y0256170D01*
X0159465Y0256120D01*
X0159449Y0256070D01*
X0159430Y0256021D01*
X0159407Y0255974D01*
X0159381Y0255929D01*
X0159351Y0255887D01*
X0159318Y0255846D01*
X0159283Y0255808D01*
X0159244Y0255773D01*
X0159203Y0255741D01*
X0159159Y0255712D01*
X0159114Y0255687D01*
X0159067Y0255665D01*
X0159018Y0255646D01*
X0158968Y0255632D01*
X0158917Y0255621D01*
X0158865Y0255614D01*
X0158813Y0255611D01*
X0158761Y0255612D01*
X0158709Y0255617D01*
X0158658Y0255626D01*
X0158607Y0255639D01*
X0158558Y0255655D01*
X0158509Y0255675D01*
X0158463Y0255699D01*
X0158419Y0255726D01*
X0158376Y0255757D01*
X0158336Y0255790D01*
X0158299Y0255827D01*
X0158265Y0255866D01*
X0158234Y0255908D01*
X0158205Y0255952D01*
X0158181Y0255998D01*
X0158160Y0256045D01*
X0158142Y0256095D01*
X0158129Y0256145D01*
X0158119Y0256196D01*
X0158113Y0256248D01*
X0158111Y0256300D01*
X0045611Y0256300D02*
X0045613Y0256352D01*
X0045619Y0256404D01*
X0045629Y0256455D01*
X0045642Y0256505D01*
X0045660Y0256555D01*
X0045681Y0256602D01*
X0045705Y0256648D01*
X0045734Y0256692D01*
X0045765Y0256734D01*
X0045799Y0256773D01*
X0045836Y0256810D01*
X0045876Y0256843D01*
X0045919Y0256874D01*
X0045963Y0256901D01*
X0046009Y0256925D01*
X0046058Y0256945D01*
X0046107Y0256961D01*
X0046158Y0256974D01*
X0046209Y0256983D01*
X0046261Y0256988D01*
X0046313Y0256989D01*
X0046365Y0256986D01*
X0046417Y0256979D01*
X0046468Y0256968D01*
X0046518Y0256954D01*
X0046567Y0256935D01*
X0046614Y0256913D01*
X0046659Y0256888D01*
X0046703Y0256859D01*
X0046744Y0256827D01*
X0046783Y0256792D01*
X0046818Y0256754D01*
X0046851Y0256713D01*
X0046881Y0256671D01*
X0046907Y0256626D01*
X0046930Y0256579D01*
X0046949Y0256530D01*
X0046965Y0256480D01*
X0046977Y0256430D01*
X0046985Y0256378D01*
X0046989Y0256326D01*
X0046989Y0256274D01*
X0046985Y0256222D01*
X0046977Y0256170D01*
X0046965Y0256120D01*
X0046949Y0256070D01*
X0046930Y0256021D01*
X0046907Y0255974D01*
X0046881Y0255929D01*
X0046851Y0255887D01*
X0046818Y0255846D01*
X0046783Y0255808D01*
X0046744Y0255773D01*
X0046703Y0255741D01*
X0046659Y0255712D01*
X0046614Y0255687D01*
X0046567Y0255665D01*
X0046518Y0255646D01*
X0046468Y0255632D01*
X0046417Y0255621D01*
X0046365Y0255614D01*
X0046313Y0255611D01*
X0046261Y0255612D01*
X0046209Y0255617D01*
X0046158Y0255626D01*
X0046107Y0255639D01*
X0046058Y0255655D01*
X0046009Y0255675D01*
X0045963Y0255699D01*
X0045919Y0255726D01*
X0045876Y0255757D01*
X0045836Y0255790D01*
X0045799Y0255827D01*
X0045765Y0255866D01*
X0045734Y0255908D01*
X0045705Y0255952D01*
X0045681Y0255998D01*
X0045660Y0256045D01*
X0045642Y0256095D01*
X0045629Y0256145D01*
X0045619Y0256196D01*
X0045613Y0256248D01*
X0045611Y0256300D01*
X0043111Y0256300D02*
X0043113Y0256352D01*
X0043119Y0256404D01*
X0043129Y0256455D01*
X0043142Y0256505D01*
X0043160Y0256555D01*
X0043181Y0256602D01*
X0043205Y0256648D01*
X0043234Y0256692D01*
X0043265Y0256734D01*
X0043299Y0256773D01*
X0043336Y0256810D01*
X0043376Y0256843D01*
X0043419Y0256874D01*
X0043463Y0256901D01*
X0043509Y0256925D01*
X0043558Y0256945D01*
X0043607Y0256961D01*
X0043658Y0256974D01*
X0043709Y0256983D01*
X0043761Y0256988D01*
X0043813Y0256989D01*
X0043865Y0256986D01*
X0043917Y0256979D01*
X0043968Y0256968D01*
X0044018Y0256954D01*
X0044067Y0256935D01*
X0044114Y0256913D01*
X0044159Y0256888D01*
X0044203Y0256859D01*
X0044244Y0256827D01*
X0044283Y0256792D01*
X0044318Y0256754D01*
X0044351Y0256713D01*
X0044381Y0256671D01*
X0044407Y0256626D01*
X0044430Y0256579D01*
X0044449Y0256530D01*
X0044465Y0256480D01*
X0044477Y0256430D01*
X0044485Y0256378D01*
X0044489Y0256326D01*
X0044489Y0256274D01*
X0044485Y0256222D01*
X0044477Y0256170D01*
X0044465Y0256120D01*
X0044449Y0256070D01*
X0044430Y0256021D01*
X0044407Y0255974D01*
X0044381Y0255929D01*
X0044351Y0255887D01*
X0044318Y0255846D01*
X0044283Y0255808D01*
X0044244Y0255773D01*
X0044203Y0255741D01*
X0044159Y0255712D01*
X0044114Y0255687D01*
X0044067Y0255665D01*
X0044018Y0255646D01*
X0043968Y0255632D01*
X0043917Y0255621D01*
X0043865Y0255614D01*
X0043813Y0255611D01*
X0043761Y0255612D01*
X0043709Y0255617D01*
X0043658Y0255626D01*
X0043607Y0255639D01*
X0043558Y0255655D01*
X0043509Y0255675D01*
X0043463Y0255699D01*
X0043419Y0255726D01*
X0043376Y0255757D01*
X0043336Y0255790D01*
X0043299Y0255827D01*
X0043265Y0255866D01*
X0043234Y0255908D01*
X0043205Y0255952D01*
X0043181Y0255998D01*
X0043160Y0256045D01*
X0043142Y0256095D01*
X0043129Y0256145D01*
X0043119Y0256196D01*
X0043113Y0256248D01*
X0043111Y0256300D01*
X0040611Y0256300D02*
X0040613Y0256352D01*
X0040619Y0256404D01*
X0040629Y0256455D01*
X0040642Y0256505D01*
X0040660Y0256555D01*
X0040681Y0256602D01*
X0040705Y0256648D01*
X0040734Y0256692D01*
X0040765Y0256734D01*
X0040799Y0256773D01*
X0040836Y0256810D01*
X0040876Y0256843D01*
X0040919Y0256874D01*
X0040963Y0256901D01*
X0041009Y0256925D01*
X0041058Y0256945D01*
X0041107Y0256961D01*
X0041158Y0256974D01*
X0041209Y0256983D01*
X0041261Y0256988D01*
X0041313Y0256989D01*
X0041365Y0256986D01*
X0041417Y0256979D01*
X0041468Y0256968D01*
X0041518Y0256954D01*
X0041567Y0256935D01*
X0041614Y0256913D01*
X0041659Y0256888D01*
X0041703Y0256859D01*
X0041744Y0256827D01*
X0041783Y0256792D01*
X0041818Y0256754D01*
X0041851Y0256713D01*
X0041881Y0256671D01*
X0041907Y0256626D01*
X0041930Y0256579D01*
X0041949Y0256530D01*
X0041965Y0256480D01*
X0041977Y0256430D01*
X0041985Y0256378D01*
X0041989Y0256326D01*
X0041989Y0256274D01*
X0041985Y0256222D01*
X0041977Y0256170D01*
X0041965Y0256120D01*
X0041949Y0256070D01*
X0041930Y0256021D01*
X0041907Y0255974D01*
X0041881Y0255929D01*
X0041851Y0255887D01*
X0041818Y0255846D01*
X0041783Y0255808D01*
X0041744Y0255773D01*
X0041703Y0255741D01*
X0041659Y0255712D01*
X0041614Y0255687D01*
X0041567Y0255665D01*
X0041518Y0255646D01*
X0041468Y0255632D01*
X0041417Y0255621D01*
X0041365Y0255614D01*
X0041313Y0255611D01*
X0041261Y0255612D01*
X0041209Y0255617D01*
X0041158Y0255626D01*
X0041107Y0255639D01*
X0041058Y0255655D01*
X0041009Y0255675D01*
X0040963Y0255699D01*
X0040919Y0255726D01*
X0040876Y0255757D01*
X0040836Y0255790D01*
X0040799Y0255827D01*
X0040765Y0255866D01*
X0040734Y0255908D01*
X0040705Y0255952D01*
X0040681Y0255998D01*
X0040660Y0256045D01*
X0040642Y0256095D01*
X0040629Y0256145D01*
X0040619Y0256196D01*
X0040613Y0256248D01*
X0040611Y0256300D01*
X0040611Y0263800D02*
X0040613Y0263852D01*
X0040619Y0263904D01*
X0040629Y0263955D01*
X0040642Y0264005D01*
X0040660Y0264055D01*
X0040681Y0264102D01*
X0040705Y0264148D01*
X0040734Y0264192D01*
X0040765Y0264234D01*
X0040799Y0264273D01*
X0040836Y0264310D01*
X0040876Y0264343D01*
X0040919Y0264374D01*
X0040963Y0264401D01*
X0041009Y0264425D01*
X0041058Y0264445D01*
X0041107Y0264461D01*
X0041158Y0264474D01*
X0041209Y0264483D01*
X0041261Y0264488D01*
X0041313Y0264489D01*
X0041365Y0264486D01*
X0041417Y0264479D01*
X0041468Y0264468D01*
X0041518Y0264454D01*
X0041567Y0264435D01*
X0041614Y0264413D01*
X0041659Y0264388D01*
X0041703Y0264359D01*
X0041744Y0264327D01*
X0041783Y0264292D01*
X0041818Y0264254D01*
X0041851Y0264213D01*
X0041881Y0264171D01*
X0041907Y0264126D01*
X0041930Y0264079D01*
X0041949Y0264030D01*
X0041965Y0263980D01*
X0041977Y0263930D01*
X0041985Y0263878D01*
X0041989Y0263826D01*
X0041989Y0263774D01*
X0041985Y0263722D01*
X0041977Y0263670D01*
X0041965Y0263620D01*
X0041949Y0263570D01*
X0041930Y0263521D01*
X0041907Y0263474D01*
X0041881Y0263429D01*
X0041851Y0263387D01*
X0041818Y0263346D01*
X0041783Y0263308D01*
X0041744Y0263273D01*
X0041703Y0263241D01*
X0041659Y0263212D01*
X0041614Y0263187D01*
X0041567Y0263165D01*
X0041518Y0263146D01*
X0041468Y0263132D01*
X0041417Y0263121D01*
X0041365Y0263114D01*
X0041313Y0263111D01*
X0041261Y0263112D01*
X0041209Y0263117D01*
X0041158Y0263126D01*
X0041107Y0263139D01*
X0041058Y0263155D01*
X0041009Y0263175D01*
X0040963Y0263199D01*
X0040919Y0263226D01*
X0040876Y0263257D01*
X0040836Y0263290D01*
X0040799Y0263327D01*
X0040765Y0263366D01*
X0040734Y0263408D01*
X0040705Y0263452D01*
X0040681Y0263498D01*
X0040660Y0263545D01*
X0040642Y0263595D01*
X0040629Y0263645D01*
X0040619Y0263696D01*
X0040613Y0263748D01*
X0040611Y0263800D01*
X0043111Y0263800D02*
X0043113Y0263852D01*
X0043119Y0263904D01*
X0043129Y0263955D01*
X0043142Y0264005D01*
X0043160Y0264055D01*
X0043181Y0264102D01*
X0043205Y0264148D01*
X0043234Y0264192D01*
X0043265Y0264234D01*
X0043299Y0264273D01*
X0043336Y0264310D01*
X0043376Y0264343D01*
X0043419Y0264374D01*
X0043463Y0264401D01*
X0043509Y0264425D01*
X0043558Y0264445D01*
X0043607Y0264461D01*
X0043658Y0264474D01*
X0043709Y0264483D01*
X0043761Y0264488D01*
X0043813Y0264489D01*
X0043865Y0264486D01*
X0043917Y0264479D01*
X0043968Y0264468D01*
X0044018Y0264454D01*
X0044067Y0264435D01*
X0044114Y0264413D01*
X0044159Y0264388D01*
X0044203Y0264359D01*
X0044244Y0264327D01*
X0044283Y0264292D01*
X0044318Y0264254D01*
X0044351Y0264213D01*
X0044381Y0264171D01*
X0044407Y0264126D01*
X0044430Y0264079D01*
X0044449Y0264030D01*
X0044465Y0263980D01*
X0044477Y0263930D01*
X0044485Y0263878D01*
X0044489Y0263826D01*
X0044489Y0263774D01*
X0044485Y0263722D01*
X0044477Y0263670D01*
X0044465Y0263620D01*
X0044449Y0263570D01*
X0044430Y0263521D01*
X0044407Y0263474D01*
X0044381Y0263429D01*
X0044351Y0263387D01*
X0044318Y0263346D01*
X0044283Y0263308D01*
X0044244Y0263273D01*
X0044203Y0263241D01*
X0044159Y0263212D01*
X0044114Y0263187D01*
X0044067Y0263165D01*
X0044018Y0263146D01*
X0043968Y0263132D01*
X0043917Y0263121D01*
X0043865Y0263114D01*
X0043813Y0263111D01*
X0043761Y0263112D01*
X0043709Y0263117D01*
X0043658Y0263126D01*
X0043607Y0263139D01*
X0043558Y0263155D01*
X0043509Y0263175D01*
X0043463Y0263199D01*
X0043419Y0263226D01*
X0043376Y0263257D01*
X0043336Y0263290D01*
X0043299Y0263327D01*
X0043265Y0263366D01*
X0043234Y0263408D01*
X0043205Y0263452D01*
X0043181Y0263498D01*
X0043160Y0263545D01*
X0043142Y0263595D01*
X0043129Y0263645D01*
X0043119Y0263696D01*
X0043113Y0263748D01*
X0043111Y0263800D01*
X0045611Y0263800D02*
X0045613Y0263852D01*
X0045619Y0263904D01*
X0045629Y0263955D01*
X0045642Y0264005D01*
X0045660Y0264055D01*
X0045681Y0264102D01*
X0045705Y0264148D01*
X0045734Y0264192D01*
X0045765Y0264234D01*
X0045799Y0264273D01*
X0045836Y0264310D01*
X0045876Y0264343D01*
X0045919Y0264374D01*
X0045963Y0264401D01*
X0046009Y0264425D01*
X0046058Y0264445D01*
X0046107Y0264461D01*
X0046158Y0264474D01*
X0046209Y0264483D01*
X0046261Y0264488D01*
X0046313Y0264489D01*
X0046365Y0264486D01*
X0046417Y0264479D01*
X0046468Y0264468D01*
X0046518Y0264454D01*
X0046567Y0264435D01*
X0046614Y0264413D01*
X0046659Y0264388D01*
X0046703Y0264359D01*
X0046744Y0264327D01*
X0046783Y0264292D01*
X0046818Y0264254D01*
X0046851Y0264213D01*
X0046881Y0264171D01*
X0046907Y0264126D01*
X0046930Y0264079D01*
X0046949Y0264030D01*
X0046965Y0263980D01*
X0046977Y0263930D01*
X0046985Y0263878D01*
X0046989Y0263826D01*
X0046989Y0263774D01*
X0046985Y0263722D01*
X0046977Y0263670D01*
X0046965Y0263620D01*
X0046949Y0263570D01*
X0046930Y0263521D01*
X0046907Y0263474D01*
X0046881Y0263429D01*
X0046851Y0263387D01*
X0046818Y0263346D01*
X0046783Y0263308D01*
X0046744Y0263273D01*
X0046703Y0263241D01*
X0046659Y0263212D01*
X0046614Y0263187D01*
X0046567Y0263165D01*
X0046518Y0263146D01*
X0046468Y0263132D01*
X0046417Y0263121D01*
X0046365Y0263114D01*
X0046313Y0263111D01*
X0046261Y0263112D01*
X0046209Y0263117D01*
X0046158Y0263126D01*
X0046107Y0263139D01*
X0046058Y0263155D01*
X0046009Y0263175D01*
X0045963Y0263199D01*
X0045919Y0263226D01*
X0045876Y0263257D01*
X0045836Y0263290D01*
X0045799Y0263327D01*
X0045765Y0263366D01*
X0045734Y0263408D01*
X0045705Y0263452D01*
X0045681Y0263498D01*
X0045660Y0263545D01*
X0045642Y0263595D01*
X0045629Y0263645D01*
X0045619Y0263696D01*
X0045613Y0263748D01*
X0045611Y0263800D01*
X0045611Y0363800D02*
X0045613Y0363852D01*
X0045619Y0363904D01*
X0045629Y0363955D01*
X0045642Y0364005D01*
X0045660Y0364055D01*
X0045681Y0364102D01*
X0045705Y0364148D01*
X0045734Y0364192D01*
X0045765Y0364234D01*
X0045799Y0364273D01*
X0045836Y0364310D01*
X0045876Y0364343D01*
X0045919Y0364374D01*
X0045963Y0364401D01*
X0046009Y0364425D01*
X0046058Y0364445D01*
X0046107Y0364461D01*
X0046158Y0364474D01*
X0046209Y0364483D01*
X0046261Y0364488D01*
X0046313Y0364489D01*
X0046365Y0364486D01*
X0046417Y0364479D01*
X0046468Y0364468D01*
X0046518Y0364454D01*
X0046567Y0364435D01*
X0046614Y0364413D01*
X0046659Y0364388D01*
X0046703Y0364359D01*
X0046744Y0364327D01*
X0046783Y0364292D01*
X0046818Y0364254D01*
X0046851Y0364213D01*
X0046881Y0364171D01*
X0046907Y0364126D01*
X0046930Y0364079D01*
X0046949Y0364030D01*
X0046965Y0363980D01*
X0046977Y0363930D01*
X0046985Y0363878D01*
X0046989Y0363826D01*
X0046989Y0363774D01*
X0046985Y0363722D01*
X0046977Y0363670D01*
X0046965Y0363620D01*
X0046949Y0363570D01*
X0046930Y0363521D01*
X0046907Y0363474D01*
X0046881Y0363429D01*
X0046851Y0363387D01*
X0046818Y0363346D01*
X0046783Y0363308D01*
X0046744Y0363273D01*
X0046703Y0363241D01*
X0046659Y0363212D01*
X0046614Y0363187D01*
X0046567Y0363165D01*
X0046518Y0363146D01*
X0046468Y0363132D01*
X0046417Y0363121D01*
X0046365Y0363114D01*
X0046313Y0363111D01*
X0046261Y0363112D01*
X0046209Y0363117D01*
X0046158Y0363126D01*
X0046107Y0363139D01*
X0046058Y0363155D01*
X0046009Y0363175D01*
X0045963Y0363199D01*
X0045919Y0363226D01*
X0045876Y0363257D01*
X0045836Y0363290D01*
X0045799Y0363327D01*
X0045765Y0363366D01*
X0045734Y0363408D01*
X0045705Y0363452D01*
X0045681Y0363498D01*
X0045660Y0363545D01*
X0045642Y0363595D01*
X0045629Y0363645D01*
X0045619Y0363696D01*
X0045613Y0363748D01*
X0045611Y0363800D01*
X0043111Y0363800D02*
X0043113Y0363852D01*
X0043119Y0363904D01*
X0043129Y0363955D01*
X0043142Y0364005D01*
X0043160Y0364055D01*
X0043181Y0364102D01*
X0043205Y0364148D01*
X0043234Y0364192D01*
X0043265Y0364234D01*
X0043299Y0364273D01*
X0043336Y0364310D01*
X0043376Y0364343D01*
X0043419Y0364374D01*
X0043463Y0364401D01*
X0043509Y0364425D01*
X0043558Y0364445D01*
X0043607Y0364461D01*
X0043658Y0364474D01*
X0043709Y0364483D01*
X0043761Y0364488D01*
X0043813Y0364489D01*
X0043865Y0364486D01*
X0043917Y0364479D01*
X0043968Y0364468D01*
X0044018Y0364454D01*
X0044067Y0364435D01*
X0044114Y0364413D01*
X0044159Y0364388D01*
X0044203Y0364359D01*
X0044244Y0364327D01*
X0044283Y0364292D01*
X0044318Y0364254D01*
X0044351Y0364213D01*
X0044381Y0364171D01*
X0044407Y0364126D01*
X0044430Y0364079D01*
X0044449Y0364030D01*
X0044465Y0363980D01*
X0044477Y0363930D01*
X0044485Y0363878D01*
X0044489Y0363826D01*
X0044489Y0363774D01*
X0044485Y0363722D01*
X0044477Y0363670D01*
X0044465Y0363620D01*
X0044449Y0363570D01*
X0044430Y0363521D01*
X0044407Y0363474D01*
X0044381Y0363429D01*
X0044351Y0363387D01*
X0044318Y0363346D01*
X0044283Y0363308D01*
X0044244Y0363273D01*
X0044203Y0363241D01*
X0044159Y0363212D01*
X0044114Y0363187D01*
X0044067Y0363165D01*
X0044018Y0363146D01*
X0043968Y0363132D01*
X0043917Y0363121D01*
X0043865Y0363114D01*
X0043813Y0363111D01*
X0043761Y0363112D01*
X0043709Y0363117D01*
X0043658Y0363126D01*
X0043607Y0363139D01*
X0043558Y0363155D01*
X0043509Y0363175D01*
X0043463Y0363199D01*
X0043419Y0363226D01*
X0043376Y0363257D01*
X0043336Y0363290D01*
X0043299Y0363327D01*
X0043265Y0363366D01*
X0043234Y0363408D01*
X0043205Y0363452D01*
X0043181Y0363498D01*
X0043160Y0363545D01*
X0043142Y0363595D01*
X0043129Y0363645D01*
X0043119Y0363696D01*
X0043113Y0363748D01*
X0043111Y0363800D01*
X0040611Y0363800D02*
X0040613Y0363852D01*
X0040619Y0363904D01*
X0040629Y0363955D01*
X0040642Y0364005D01*
X0040660Y0364055D01*
X0040681Y0364102D01*
X0040705Y0364148D01*
X0040734Y0364192D01*
X0040765Y0364234D01*
X0040799Y0364273D01*
X0040836Y0364310D01*
X0040876Y0364343D01*
X0040919Y0364374D01*
X0040963Y0364401D01*
X0041009Y0364425D01*
X0041058Y0364445D01*
X0041107Y0364461D01*
X0041158Y0364474D01*
X0041209Y0364483D01*
X0041261Y0364488D01*
X0041313Y0364489D01*
X0041365Y0364486D01*
X0041417Y0364479D01*
X0041468Y0364468D01*
X0041518Y0364454D01*
X0041567Y0364435D01*
X0041614Y0364413D01*
X0041659Y0364388D01*
X0041703Y0364359D01*
X0041744Y0364327D01*
X0041783Y0364292D01*
X0041818Y0364254D01*
X0041851Y0364213D01*
X0041881Y0364171D01*
X0041907Y0364126D01*
X0041930Y0364079D01*
X0041949Y0364030D01*
X0041965Y0363980D01*
X0041977Y0363930D01*
X0041985Y0363878D01*
X0041989Y0363826D01*
X0041989Y0363774D01*
X0041985Y0363722D01*
X0041977Y0363670D01*
X0041965Y0363620D01*
X0041949Y0363570D01*
X0041930Y0363521D01*
X0041907Y0363474D01*
X0041881Y0363429D01*
X0041851Y0363387D01*
X0041818Y0363346D01*
X0041783Y0363308D01*
X0041744Y0363273D01*
X0041703Y0363241D01*
X0041659Y0363212D01*
X0041614Y0363187D01*
X0041567Y0363165D01*
X0041518Y0363146D01*
X0041468Y0363132D01*
X0041417Y0363121D01*
X0041365Y0363114D01*
X0041313Y0363111D01*
X0041261Y0363112D01*
X0041209Y0363117D01*
X0041158Y0363126D01*
X0041107Y0363139D01*
X0041058Y0363155D01*
X0041009Y0363175D01*
X0040963Y0363199D01*
X0040919Y0363226D01*
X0040876Y0363257D01*
X0040836Y0363290D01*
X0040799Y0363327D01*
X0040765Y0363366D01*
X0040734Y0363408D01*
X0040705Y0363452D01*
X0040681Y0363498D01*
X0040660Y0363545D01*
X0040642Y0363595D01*
X0040629Y0363645D01*
X0040619Y0363696D01*
X0040613Y0363748D01*
X0040611Y0363800D01*
X0040611Y0371300D02*
X0040613Y0371352D01*
X0040619Y0371404D01*
X0040629Y0371455D01*
X0040642Y0371505D01*
X0040660Y0371555D01*
X0040681Y0371602D01*
X0040705Y0371648D01*
X0040734Y0371692D01*
X0040765Y0371734D01*
X0040799Y0371773D01*
X0040836Y0371810D01*
X0040876Y0371843D01*
X0040919Y0371874D01*
X0040963Y0371901D01*
X0041009Y0371925D01*
X0041058Y0371945D01*
X0041107Y0371961D01*
X0041158Y0371974D01*
X0041209Y0371983D01*
X0041261Y0371988D01*
X0041313Y0371989D01*
X0041365Y0371986D01*
X0041417Y0371979D01*
X0041468Y0371968D01*
X0041518Y0371954D01*
X0041567Y0371935D01*
X0041614Y0371913D01*
X0041659Y0371888D01*
X0041703Y0371859D01*
X0041744Y0371827D01*
X0041783Y0371792D01*
X0041818Y0371754D01*
X0041851Y0371713D01*
X0041881Y0371671D01*
X0041907Y0371626D01*
X0041930Y0371579D01*
X0041949Y0371530D01*
X0041965Y0371480D01*
X0041977Y0371430D01*
X0041985Y0371378D01*
X0041989Y0371326D01*
X0041989Y0371274D01*
X0041985Y0371222D01*
X0041977Y0371170D01*
X0041965Y0371120D01*
X0041949Y0371070D01*
X0041930Y0371021D01*
X0041907Y0370974D01*
X0041881Y0370929D01*
X0041851Y0370887D01*
X0041818Y0370846D01*
X0041783Y0370808D01*
X0041744Y0370773D01*
X0041703Y0370741D01*
X0041659Y0370712D01*
X0041614Y0370687D01*
X0041567Y0370665D01*
X0041518Y0370646D01*
X0041468Y0370632D01*
X0041417Y0370621D01*
X0041365Y0370614D01*
X0041313Y0370611D01*
X0041261Y0370612D01*
X0041209Y0370617D01*
X0041158Y0370626D01*
X0041107Y0370639D01*
X0041058Y0370655D01*
X0041009Y0370675D01*
X0040963Y0370699D01*
X0040919Y0370726D01*
X0040876Y0370757D01*
X0040836Y0370790D01*
X0040799Y0370827D01*
X0040765Y0370866D01*
X0040734Y0370908D01*
X0040705Y0370952D01*
X0040681Y0370998D01*
X0040660Y0371045D01*
X0040642Y0371095D01*
X0040629Y0371145D01*
X0040619Y0371196D01*
X0040613Y0371248D01*
X0040611Y0371300D01*
X0043111Y0371300D02*
X0043113Y0371352D01*
X0043119Y0371404D01*
X0043129Y0371455D01*
X0043142Y0371505D01*
X0043160Y0371555D01*
X0043181Y0371602D01*
X0043205Y0371648D01*
X0043234Y0371692D01*
X0043265Y0371734D01*
X0043299Y0371773D01*
X0043336Y0371810D01*
X0043376Y0371843D01*
X0043419Y0371874D01*
X0043463Y0371901D01*
X0043509Y0371925D01*
X0043558Y0371945D01*
X0043607Y0371961D01*
X0043658Y0371974D01*
X0043709Y0371983D01*
X0043761Y0371988D01*
X0043813Y0371989D01*
X0043865Y0371986D01*
X0043917Y0371979D01*
X0043968Y0371968D01*
X0044018Y0371954D01*
X0044067Y0371935D01*
X0044114Y0371913D01*
X0044159Y0371888D01*
X0044203Y0371859D01*
X0044244Y0371827D01*
X0044283Y0371792D01*
X0044318Y0371754D01*
X0044351Y0371713D01*
X0044381Y0371671D01*
X0044407Y0371626D01*
X0044430Y0371579D01*
X0044449Y0371530D01*
X0044465Y0371480D01*
X0044477Y0371430D01*
X0044485Y0371378D01*
X0044489Y0371326D01*
X0044489Y0371274D01*
X0044485Y0371222D01*
X0044477Y0371170D01*
X0044465Y0371120D01*
X0044449Y0371070D01*
X0044430Y0371021D01*
X0044407Y0370974D01*
X0044381Y0370929D01*
X0044351Y0370887D01*
X0044318Y0370846D01*
X0044283Y0370808D01*
X0044244Y0370773D01*
X0044203Y0370741D01*
X0044159Y0370712D01*
X0044114Y0370687D01*
X0044067Y0370665D01*
X0044018Y0370646D01*
X0043968Y0370632D01*
X0043917Y0370621D01*
X0043865Y0370614D01*
X0043813Y0370611D01*
X0043761Y0370612D01*
X0043709Y0370617D01*
X0043658Y0370626D01*
X0043607Y0370639D01*
X0043558Y0370655D01*
X0043509Y0370675D01*
X0043463Y0370699D01*
X0043419Y0370726D01*
X0043376Y0370757D01*
X0043336Y0370790D01*
X0043299Y0370827D01*
X0043265Y0370866D01*
X0043234Y0370908D01*
X0043205Y0370952D01*
X0043181Y0370998D01*
X0043160Y0371045D01*
X0043142Y0371095D01*
X0043129Y0371145D01*
X0043119Y0371196D01*
X0043113Y0371248D01*
X0043111Y0371300D01*
X0045611Y0371300D02*
X0045613Y0371352D01*
X0045619Y0371404D01*
X0045629Y0371455D01*
X0045642Y0371505D01*
X0045660Y0371555D01*
X0045681Y0371602D01*
X0045705Y0371648D01*
X0045734Y0371692D01*
X0045765Y0371734D01*
X0045799Y0371773D01*
X0045836Y0371810D01*
X0045876Y0371843D01*
X0045919Y0371874D01*
X0045963Y0371901D01*
X0046009Y0371925D01*
X0046058Y0371945D01*
X0046107Y0371961D01*
X0046158Y0371974D01*
X0046209Y0371983D01*
X0046261Y0371988D01*
X0046313Y0371989D01*
X0046365Y0371986D01*
X0046417Y0371979D01*
X0046468Y0371968D01*
X0046518Y0371954D01*
X0046567Y0371935D01*
X0046614Y0371913D01*
X0046659Y0371888D01*
X0046703Y0371859D01*
X0046744Y0371827D01*
X0046783Y0371792D01*
X0046818Y0371754D01*
X0046851Y0371713D01*
X0046881Y0371671D01*
X0046907Y0371626D01*
X0046930Y0371579D01*
X0046949Y0371530D01*
X0046965Y0371480D01*
X0046977Y0371430D01*
X0046985Y0371378D01*
X0046989Y0371326D01*
X0046989Y0371274D01*
X0046985Y0371222D01*
X0046977Y0371170D01*
X0046965Y0371120D01*
X0046949Y0371070D01*
X0046930Y0371021D01*
X0046907Y0370974D01*
X0046881Y0370929D01*
X0046851Y0370887D01*
X0046818Y0370846D01*
X0046783Y0370808D01*
X0046744Y0370773D01*
X0046703Y0370741D01*
X0046659Y0370712D01*
X0046614Y0370687D01*
X0046567Y0370665D01*
X0046518Y0370646D01*
X0046468Y0370632D01*
X0046417Y0370621D01*
X0046365Y0370614D01*
X0046313Y0370611D01*
X0046261Y0370612D01*
X0046209Y0370617D01*
X0046158Y0370626D01*
X0046107Y0370639D01*
X0046058Y0370655D01*
X0046009Y0370675D01*
X0045963Y0370699D01*
X0045919Y0370726D01*
X0045876Y0370757D01*
X0045836Y0370790D01*
X0045799Y0370827D01*
X0045765Y0370866D01*
X0045734Y0370908D01*
X0045705Y0370952D01*
X0045681Y0370998D01*
X0045660Y0371045D01*
X0045642Y0371095D01*
X0045629Y0371145D01*
X0045619Y0371196D01*
X0045613Y0371248D01*
X0045611Y0371300D01*
M02*
