%
M48
M72
T01C0.01378
%
T01
X41300Y256300
X43800Y256300
X46300Y256300
X46300Y263800
X43800Y263800
X41300Y263800
X64300Y286700
X68800Y291300
X71689Y276300
X68800Y272550
X86728Y295472
X89500Y284300
X89500Y279500
X91300Y269589
X93800Y291300
X102700Y295100
X106170Y292830
X108700Y290300
X108800Y283800
X118800Y283800
X118300Y295100
X118800Y298800
X118800Y313800
X123800Y313800
X123800Y323800
X118800Y328800
X121300Y348800
X110970Y348800
X101300Y356300
X98800Y343800
X91900Y326300
X102700Y310700
X106170Y326300
X86300Y348800
X76300Y346300
X71300Y356300
X58800Y338800
X68800Y316300
X41300Y338800
X41300Y363800
X43800Y363800
X46300Y363800
X46300Y371300
X43800Y371300
X41300Y371300
X133800Y328800
X138800Y338800
X136300Y348800
X148800Y328800
X148800Y313800
X148800Y298800
X148800Y283800
X153800Y263800
X156300Y263800
X158800Y263800
X158800Y256300
X156300Y256300
X153800Y256300
X166300Y283800
X166300Y298800
X166300Y313800
X161300Y316300
X166300Y323800
X166300Y328800
X163800Y343800
X166300Y348800
X158800Y363800
X156300Y363800
X153800Y363800
X153800Y371300
X156300Y371300
X158800Y371300
X151300Y348800
X133800Y313800
X133800Y298800
X133800Y283800
X178800Y283800
X178800Y298800
X178800Y328800
X178800Y343800
M30
