G75*
%MOIN*%
%OFA0B0*%
%FSLAX25Y25*%
%IPPOS*%
%LPD*%
%AMOC8*
5,1,8,0,0,1.08239X$1,22.5*
%
%ADD10C,0.02178*%
%ADD11C,0.01421*%
%ADD12R,0.08600X0.03000*%
%ADD13R,0.04737X0.05131*%
%ADD14R,0.06300X0.09100*%
%ADD15R,0.04934X0.05052*%
%ADD16R,0.04816X0.08280*%
D10*
X0041300Y0256300D03*
X0043800Y0256300D03*
X0046300Y0256300D03*
X0046300Y0263800D03*
X0043800Y0263800D03*
X0041300Y0263800D03*
X0041300Y0363800D03*
X0043800Y0363800D03*
X0046300Y0363800D03*
X0046300Y0371300D03*
X0043800Y0371300D03*
X0041300Y0371300D03*
X0153800Y0371300D03*
X0156300Y0371300D03*
X0158800Y0371300D03*
X0158800Y0363800D03*
X0156300Y0363800D03*
X0153800Y0363800D03*
X0153800Y0263800D03*
X0156300Y0263800D03*
X0158800Y0263800D03*
X0158800Y0256300D03*
X0156300Y0256300D03*
X0153800Y0256300D03*
D11*
X0148741Y0271515D02*
X0151085Y0273859D01*
X0148741Y0271515D02*
X0146397Y0273859D01*
X0148741Y0276203D01*
X0151085Y0273859D01*
X0150161Y0272935D02*
X0147321Y0272935D01*
X0146893Y0274355D02*
X0150589Y0274355D01*
X0149169Y0275775D02*
X0148313Y0275775D01*
X0146203Y0278741D02*
X0143859Y0276397D01*
X0141515Y0278741D01*
X0143859Y0281085D01*
X0146203Y0278741D01*
X0145279Y0277817D02*
X0142439Y0277817D01*
X0142011Y0279237D02*
X0145707Y0279237D01*
X0144287Y0280657D02*
X0143431Y0280657D01*
X0148741Y0286515D02*
X0151085Y0288859D01*
X0148741Y0286515D02*
X0146397Y0288859D01*
X0148741Y0291203D01*
X0151085Y0288859D01*
X0150161Y0287935D02*
X0147321Y0287935D01*
X0146893Y0289355D02*
X0150589Y0289355D01*
X0149169Y0290775D02*
X0148313Y0290775D01*
X0146203Y0293741D02*
X0143859Y0291397D01*
X0141515Y0293741D01*
X0143859Y0296085D01*
X0146203Y0293741D01*
X0145279Y0292817D02*
X0142439Y0292817D01*
X0142011Y0294237D02*
X0145707Y0294237D01*
X0144287Y0295657D02*
X0143431Y0295657D01*
X0148741Y0301515D02*
X0151085Y0303859D01*
X0148741Y0301515D02*
X0146397Y0303859D01*
X0148741Y0306203D01*
X0151085Y0303859D01*
X0150161Y0302935D02*
X0147321Y0302935D01*
X0146893Y0304355D02*
X0150589Y0304355D01*
X0149169Y0305775D02*
X0148313Y0305775D01*
X0146203Y0308741D02*
X0143859Y0306397D01*
X0141515Y0308741D01*
X0143859Y0311085D01*
X0146203Y0308741D01*
X0145279Y0307817D02*
X0142439Y0307817D01*
X0142011Y0309237D02*
X0145707Y0309237D01*
X0144287Y0310657D02*
X0143431Y0310657D01*
X0148741Y0316515D02*
X0151085Y0318859D01*
X0148741Y0316515D02*
X0146397Y0318859D01*
X0148741Y0321203D01*
X0151085Y0318859D01*
X0150161Y0317935D02*
X0147321Y0317935D01*
X0146893Y0319355D02*
X0150589Y0319355D01*
X0149169Y0320775D02*
X0148313Y0320775D01*
X0146203Y0323741D02*
X0143859Y0321397D01*
X0141515Y0323741D01*
X0143859Y0326085D01*
X0146203Y0323741D01*
X0145279Y0322817D02*
X0142439Y0322817D01*
X0142011Y0324237D02*
X0145707Y0324237D01*
X0144287Y0325657D02*
X0143431Y0325657D01*
X0148741Y0331515D02*
X0151085Y0333859D01*
X0148741Y0331515D02*
X0146397Y0333859D01*
X0148741Y0336203D01*
X0151085Y0333859D01*
X0150161Y0332935D02*
X0147321Y0332935D01*
X0146893Y0334355D02*
X0150589Y0334355D01*
X0149169Y0335775D02*
X0148313Y0335775D01*
X0146203Y0338741D02*
X0143859Y0336397D01*
X0141515Y0338741D01*
X0143859Y0341085D01*
X0146203Y0338741D01*
X0145279Y0337817D02*
X0142439Y0337817D01*
X0142011Y0339237D02*
X0145707Y0339237D01*
X0144287Y0340657D02*
X0143431Y0340657D01*
X0148741Y0349015D02*
X0151085Y0351359D01*
X0148741Y0349015D02*
X0146397Y0351359D01*
X0148741Y0353703D01*
X0151085Y0351359D01*
X0150161Y0350435D02*
X0147321Y0350435D01*
X0146893Y0351855D02*
X0150589Y0351855D01*
X0149169Y0353275D02*
X0148313Y0353275D01*
X0146203Y0356241D02*
X0143859Y0353897D01*
X0141515Y0356241D01*
X0143859Y0358585D01*
X0146203Y0356241D01*
X0145279Y0355317D02*
X0142439Y0355317D01*
X0142011Y0356737D02*
X0145707Y0356737D01*
X0144287Y0358157D02*
X0143431Y0358157D01*
X0136085Y0351359D02*
X0133741Y0349015D01*
X0131397Y0351359D01*
X0133741Y0353703D01*
X0136085Y0351359D01*
X0135161Y0350435D02*
X0132321Y0350435D01*
X0131893Y0351855D02*
X0135589Y0351855D01*
X0134169Y0353275D02*
X0133313Y0353275D01*
X0131203Y0356241D02*
X0128859Y0353897D01*
X0126515Y0356241D01*
X0128859Y0358585D01*
X0131203Y0356241D01*
X0130279Y0355317D02*
X0127439Y0355317D01*
X0127011Y0356737D02*
X0130707Y0356737D01*
X0129287Y0358157D02*
X0128431Y0358157D01*
X0121085Y0351359D02*
X0118741Y0349015D01*
X0116397Y0351359D01*
X0118741Y0353703D01*
X0121085Y0351359D01*
X0120161Y0350435D02*
X0117321Y0350435D01*
X0116893Y0351855D02*
X0120589Y0351855D01*
X0119169Y0353275D02*
X0118313Y0353275D01*
X0116203Y0356241D02*
X0113859Y0353897D01*
X0111515Y0356241D01*
X0113859Y0358585D01*
X0116203Y0356241D01*
X0115279Y0355317D02*
X0112439Y0355317D01*
X0112011Y0356737D02*
X0115707Y0356737D01*
X0114287Y0358157D02*
X0113431Y0358157D01*
X0116203Y0338741D02*
X0113859Y0336397D01*
X0111515Y0338741D01*
X0113859Y0341085D01*
X0116203Y0338741D01*
X0115279Y0337817D02*
X0112439Y0337817D01*
X0112011Y0339237D02*
X0115707Y0339237D01*
X0114287Y0340657D02*
X0113431Y0340657D01*
X0121085Y0333859D02*
X0118741Y0331515D01*
X0116397Y0333859D01*
X0118741Y0336203D01*
X0121085Y0333859D01*
X0120161Y0332935D02*
X0117321Y0332935D01*
X0116893Y0334355D02*
X0120589Y0334355D01*
X0119169Y0335775D02*
X0118313Y0335775D01*
X0116203Y0323741D02*
X0113859Y0321397D01*
X0111515Y0323741D01*
X0113859Y0326085D01*
X0116203Y0323741D01*
X0115279Y0322817D02*
X0112439Y0322817D01*
X0112011Y0324237D02*
X0115707Y0324237D01*
X0114287Y0325657D02*
X0113431Y0325657D01*
X0121085Y0318859D02*
X0118741Y0316515D01*
X0116397Y0318859D01*
X0118741Y0321203D01*
X0121085Y0318859D01*
X0120161Y0317935D02*
X0117321Y0317935D01*
X0116893Y0319355D02*
X0120589Y0319355D01*
X0119169Y0320775D02*
X0118313Y0320775D01*
X0116203Y0308741D02*
X0113859Y0306397D01*
X0111515Y0308741D01*
X0113859Y0311085D01*
X0116203Y0308741D01*
X0115279Y0307817D02*
X0112439Y0307817D01*
X0112011Y0309237D02*
X0115707Y0309237D01*
X0114287Y0310657D02*
X0113431Y0310657D01*
X0121085Y0303859D02*
X0118741Y0301515D01*
X0116397Y0303859D01*
X0118741Y0306203D01*
X0121085Y0303859D01*
X0120161Y0302935D02*
X0117321Y0302935D01*
X0116893Y0304355D02*
X0120589Y0304355D01*
X0119169Y0305775D02*
X0118313Y0305775D01*
X0116203Y0293741D02*
X0113859Y0291397D01*
X0111515Y0293741D01*
X0113859Y0296085D01*
X0116203Y0293741D01*
X0115279Y0292817D02*
X0112439Y0292817D01*
X0112011Y0294237D02*
X0115707Y0294237D01*
X0114287Y0295657D02*
X0113431Y0295657D01*
X0121085Y0288859D02*
X0118741Y0286515D01*
X0116397Y0288859D01*
X0118741Y0291203D01*
X0121085Y0288859D01*
X0120161Y0287935D02*
X0117321Y0287935D01*
X0116893Y0289355D02*
X0120589Y0289355D01*
X0119169Y0290775D02*
X0118313Y0290775D01*
X0128859Y0291397D02*
X0131203Y0293741D01*
X0128859Y0291397D02*
X0126515Y0293741D01*
X0128859Y0296085D01*
X0131203Y0293741D01*
X0130279Y0292817D02*
X0127439Y0292817D01*
X0127011Y0294237D02*
X0130707Y0294237D01*
X0129287Y0295657D02*
X0128431Y0295657D01*
X0136085Y0288859D02*
X0133741Y0286515D01*
X0131397Y0288859D01*
X0133741Y0291203D01*
X0136085Y0288859D01*
X0135161Y0287935D02*
X0132321Y0287935D01*
X0131893Y0289355D02*
X0135589Y0289355D01*
X0134169Y0290775D02*
X0133313Y0290775D01*
X0133741Y0301515D02*
X0136085Y0303859D01*
X0133741Y0301515D02*
X0131397Y0303859D01*
X0133741Y0306203D01*
X0136085Y0303859D01*
X0135161Y0302935D02*
X0132321Y0302935D01*
X0131893Y0304355D02*
X0135589Y0304355D01*
X0134169Y0305775D02*
X0133313Y0305775D01*
X0131203Y0308741D02*
X0128859Y0306397D01*
X0126515Y0308741D01*
X0128859Y0311085D01*
X0131203Y0308741D01*
X0130279Y0307817D02*
X0127439Y0307817D01*
X0127011Y0309237D02*
X0130707Y0309237D01*
X0129287Y0310657D02*
X0128431Y0310657D01*
X0133741Y0316515D02*
X0136085Y0318859D01*
X0133741Y0316515D02*
X0131397Y0318859D01*
X0133741Y0321203D01*
X0136085Y0318859D01*
X0135161Y0317935D02*
X0132321Y0317935D01*
X0131893Y0319355D02*
X0135589Y0319355D01*
X0134169Y0320775D02*
X0133313Y0320775D01*
X0131203Y0323741D02*
X0128859Y0321397D01*
X0126515Y0323741D01*
X0128859Y0326085D01*
X0131203Y0323741D01*
X0130279Y0322817D02*
X0127439Y0322817D01*
X0127011Y0324237D02*
X0130707Y0324237D01*
X0129287Y0325657D02*
X0128431Y0325657D01*
X0133741Y0331515D02*
X0136085Y0333859D01*
X0133741Y0331515D02*
X0131397Y0333859D01*
X0133741Y0336203D01*
X0136085Y0333859D01*
X0135161Y0332935D02*
X0132321Y0332935D01*
X0131893Y0334355D02*
X0135589Y0334355D01*
X0134169Y0335775D02*
X0133313Y0335775D01*
X0131203Y0338741D02*
X0128859Y0336397D01*
X0126515Y0338741D01*
X0128859Y0341085D01*
X0131203Y0338741D01*
X0130279Y0337817D02*
X0127439Y0337817D01*
X0127011Y0339237D02*
X0130707Y0339237D01*
X0129287Y0340657D02*
X0128431Y0340657D01*
X0158859Y0336397D02*
X0161203Y0338741D01*
X0158859Y0336397D02*
X0156515Y0338741D01*
X0158859Y0341085D01*
X0161203Y0338741D01*
X0160279Y0337817D02*
X0157439Y0337817D01*
X0157011Y0339237D02*
X0160707Y0339237D01*
X0159287Y0340657D02*
X0158431Y0340657D01*
X0166085Y0333859D02*
X0163741Y0331515D01*
X0161397Y0333859D01*
X0163741Y0336203D01*
X0166085Y0333859D01*
X0165161Y0332935D02*
X0162321Y0332935D01*
X0161893Y0334355D02*
X0165589Y0334355D01*
X0164169Y0335775D02*
X0163313Y0335775D01*
X0161203Y0323741D02*
X0158859Y0321397D01*
X0156515Y0323741D01*
X0158859Y0326085D01*
X0161203Y0323741D01*
X0160279Y0322817D02*
X0157439Y0322817D01*
X0157011Y0324237D02*
X0160707Y0324237D01*
X0159287Y0325657D02*
X0158431Y0325657D01*
X0166085Y0318859D02*
X0163741Y0316515D01*
X0161397Y0318859D01*
X0163741Y0321203D01*
X0166085Y0318859D01*
X0165161Y0317935D02*
X0162321Y0317935D01*
X0161893Y0319355D02*
X0165589Y0319355D01*
X0164169Y0320775D02*
X0163313Y0320775D01*
X0161203Y0308741D02*
X0158859Y0306397D01*
X0156515Y0308741D01*
X0158859Y0311085D01*
X0161203Y0308741D01*
X0160279Y0307817D02*
X0157439Y0307817D01*
X0157011Y0309237D02*
X0160707Y0309237D01*
X0159287Y0310657D02*
X0158431Y0310657D01*
X0166085Y0303859D02*
X0163741Y0301515D01*
X0161397Y0303859D01*
X0163741Y0306203D01*
X0166085Y0303859D01*
X0165161Y0302935D02*
X0162321Y0302935D01*
X0161893Y0304355D02*
X0165589Y0304355D01*
X0164169Y0305775D02*
X0163313Y0305775D01*
X0161203Y0293741D02*
X0158859Y0291397D01*
X0156515Y0293741D01*
X0158859Y0296085D01*
X0161203Y0293741D01*
X0160279Y0292817D02*
X0157439Y0292817D01*
X0157011Y0294237D02*
X0160707Y0294237D01*
X0159287Y0295657D02*
X0158431Y0295657D01*
X0166085Y0288859D02*
X0163741Y0286515D01*
X0161397Y0288859D01*
X0163741Y0291203D01*
X0166085Y0288859D01*
X0165161Y0287935D02*
X0162321Y0287935D01*
X0161893Y0289355D02*
X0165589Y0289355D01*
X0164169Y0290775D02*
X0163313Y0290775D01*
X0161203Y0278741D02*
X0158859Y0276397D01*
X0156515Y0278741D01*
X0158859Y0281085D01*
X0161203Y0278741D01*
X0160279Y0277817D02*
X0157439Y0277817D01*
X0157011Y0279237D02*
X0160707Y0279237D01*
X0159287Y0280657D02*
X0158431Y0280657D01*
X0166085Y0273859D02*
X0163741Y0271515D01*
X0161397Y0273859D01*
X0163741Y0276203D01*
X0166085Y0273859D01*
X0165161Y0272935D02*
X0162321Y0272935D01*
X0161893Y0274355D02*
X0165589Y0274355D01*
X0164169Y0275775D02*
X0163313Y0275775D01*
X0173859Y0276397D02*
X0176203Y0278741D01*
X0173859Y0276397D02*
X0171515Y0278741D01*
X0173859Y0281085D01*
X0176203Y0278741D01*
X0175279Y0277817D02*
X0172439Y0277817D01*
X0172011Y0279237D02*
X0175707Y0279237D01*
X0174287Y0280657D02*
X0173431Y0280657D01*
X0181085Y0273859D02*
X0178741Y0271515D01*
X0176397Y0273859D01*
X0178741Y0276203D01*
X0181085Y0273859D01*
X0180161Y0272935D02*
X0177321Y0272935D01*
X0176893Y0274355D02*
X0180589Y0274355D01*
X0179169Y0275775D02*
X0178313Y0275775D01*
X0178741Y0286515D02*
X0181085Y0288859D01*
X0178741Y0286515D02*
X0176397Y0288859D01*
X0178741Y0291203D01*
X0181085Y0288859D01*
X0180161Y0287935D02*
X0177321Y0287935D01*
X0176893Y0289355D02*
X0180589Y0289355D01*
X0179169Y0290775D02*
X0178313Y0290775D01*
X0176203Y0293741D02*
X0173859Y0291397D01*
X0171515Y0293741D01*
X0173859Y0296085D01*
X0176203Y0293741D01*
X0175279Y0292817D02*
X0172439Y0292817D01*
X0172011Y0294237D02*
X0175707Y0294237D01*
X0174287Y0295657D02*
X0173431Y0295657D01*
X0178741Y0301515D02*
X0181085Y0303859D01*
X0178741Y0301515D02*
X0176397Y0303859D01*
X0178741Y0306203D01*
X0181085Y0303859D01*
X0180161Y0302935D02*
X0177321Y0302935D01*
X0176893Y0304355D02*
X0180589Y0304355D01*
X0179169Y0305775D02*
X0178313Y0305775D01*
X0176203Y0308741D02*
X0173859Y0306397D01*
X0171515Y0308741D01*
X0173859Y0311085D01*
X0176203Y0308741D01*
X0175279Y0307817D02*
X0172439Y0307817D01*
X0172011Y0309237D02*
X0175707Y0309237D01*
X0174287Y0310657D02*
X0173431Y0310657D01*
X0178741Y0316515D02*
X0181085Y0318859D01*
X0178741Y0316515D02*
X0176397Y0318859D01*
X0178741Y0321203D01*
X0181085Y0318859D01*
X0180161Y0317935D02*
X0177321Y0317935D01*
X0176893Y0319355D02*
X0180589Y0319355D01*
X0179169Y0320775D02*
X0178313Y0320775D01*
X0176203Y0323741D02*
X0173859Y0321397D01*
X0171515Y0323741D01*
X0173859Y0326085D01*
X0176203Y0323741D01*
X0175279Y0322817D02*
X0172439Y0322817D01*
X0172011Y0324237D02*
X0175707Y0324237D01*
X0174287Y0325657D02*
X0173431Y0325657D01*
X0178741Y0331515D02*
X0181085Y0333859D01*
X0178741Y0331515D02*
X0176397Y0333859D01*
X0178741Y0336203D01*
X0181085Y0333859D01*
X0180161Y0332935D02*
X0177321Y0332935D01*
X0176893Y0334355D02*
X0180589Y0334355D01*
X0179169Y0335775D02*
X0178313Y0335775D01*
X0176203Y0338741D02*
X0173859Y0336397D01*
X0171515Y0338741D01*
X0173859Y0341085D01*
X0176203Y0338741D01*
X0175279Y0337817D02*
X0172439Y0337817D01*
X0172011Y0339237D02*
X0175707Y0339237D01*
X0174287Y0340657D02*
X0173431Y0340657D01*
X0178741Y0346515D02*
X0181085Y0348859D01*
X0178741Y0346515D02*
X0176397Y0348859D01*
X0178741Y0351203D01*
X0181085Y0348859D01*
X0180161Y0347935D02*
X0177321Y0347935D01*
X0176893Y0349355D02*
X0180589Y0349355D01*
X0179169Y0350775D02*
X0178313Y0350775D01*
X0176203Y0353741D02*
X0173859Y0351397D01*
X0171515Y0353741D01*
X0173859Y0356085D01*
X0176203Y0353741D01*
X0175279Y0352817D02*
X0172439Y0352817D01*
X0172011Y0354237D02*
X0175707Y0354237D01*
X0174287Y0355657D02*
X0173431Y0355657D01*
X0166085Y0351359D02*
X0163741Y0349015D01*
X0161397Y0351359D01*
X0163741Y0353703D01*
X0166085Y0351359D01*
X0165161Y0350435D02*
X0162321Y0350435D01*
X0161893Y0351855D02*
X0165589Y0351855D01*
X0164169Y0353275D02*
X0163313Y0353275D01*
X0161203Y0356241D02*
X0158859Y0353897D01*
X0156515Y0356241D01*
X0158859Y0358585D01*
X0161203Y0356241D01*
X0160279Y0355317D02*
X0157439Y0355317D01*
X0157011Y0356737D02*
X0160707Y0356737D01*
X0159287Y0358157D02*
X0158431Y0358157D01*
X0131203Y0278741D02*
X0128859Y0276397D01*
X0126515Y0278741D01*
X0128859Y0281085D01*
X0131203Y0278741D01*
X0130279Y0277817D02*
X0127439Y0277817D01*
X0127011Y0279237D02*
X0130707Y0279237D01*
X0129287Y0280657D02*
X0128431Y0280657D01*
X0136085Y0273859D02*
X0133741Y0271515D01*
X0131397Y0273859D01*
X0133741Y0276203D01*
X0136085Y0273859D01*
X0135161Y0272935D02*
X0132321Y0272935D01*
X0131893Y0274355D02*
X0135589Y0274355D01*
X0134169Y0275775D02*
X0133313Y0275775D01*
X0121085Y0273859D02*
X0118741Y0271515D01*
X0116397Y0273859D01*
X0118741Y0276203D01*
X0121085Y0273859D01*
X0120161Y0272935D02*
X0117321Y0272935D01*
X0116893Y0274355D02*
X0120589Y0274355D01*
X0119169Y0275775D02*
X0118313Y0275775D01*
X0116203Y0278741D02*
X0113859Y0276397D01*
X0111515Y0278741D01*
X0113859Y0281085D01*
X0116203Y0278741D01*
X0115279Y0277817D02*
X0112439Y0277817D01*
X0112011Y0279237D02*
X0115707Y0279237D01*
X0114287Y0280657D02*
X0113431Y0280657D01*
D12*
X0098500Y0281300D03*
X0098500Y0276300D03*
X0098500Y0271300D03*
X0098500Y0286300D03*
X0098500Y0291300D03*
X0098500Y0296300D03*
X0098500Y0301300D03*
X0079100Y0301300D03*
X0079100Y0296300D03*
X0079100Y0291300D03*
X0079100Y0286300D03*
X0079100Y0281300D03*
X0079100Y0276300D03*
X0079100Y0271300D03*
D13*
X0090454Y0316300D03*
X0097146Y0316300D03*
D14*
X0051500Y0321300D03*
X0051500Y0307100D03*
X0033800Y0307100D03*
X0033800Y0321300D03*
X0033800Y0357100D03*
X0051500Y0357100D03*
X0051500Y0271300D03*
X0033800Y0271300D03*
D15*
X0075355Y0316300D03*
X0082245Y0316300D03*
D16*
X0086300Y0332580D03*
X0076300Y0332580D03*
X0076300Y0355020D03*
X0086300Y0355020D03*
X0096300Y0355020D03*
X0096300Y0332580D03*
M02*
